<?xml version="1.0" encoding="utf-8"?>
<!-- Generator: Adobe Illustrator 23.0.4, SVG Export Plug-In . SVG Version: 6.00 Build 0)  -->
<svg version="1.1" id="Layer_1" xmlns="http://www.w3.org/2000/svg" xmlns:xlink="http://www.w3.org/1999/xlink" x="0px" y="0px"
	 viewBox="0 0 831.7 1024" style="enable-background:new 0 0 831.7 1024;" xml:space="preserve">
<style type="text/css">
	.st0{fill:#05386B;}
</style>
<title></title>
<g id="icomoon-ignore">
</g>
<path class="st0" d="M206.1,1004.8c-20.2-13.5-38.1-30-53.1-49.1c-16.3-19.8-31.5-40.5-45.4-62C75,845.9,49.4,793.6,31.7,738.6
	C10.4,674.5,0,613.1,0,553.1c0-67,14.5-125.4,42.8-174.5c20.9-38.4,52.1-70.5,89.6-93.1c36.3-22.6,78.5-35,121.2-35.8
	c14.9,0,31.1,2.1,48.2,6.4c12.4,3.4,27.3,9,45.7,15.8c23.5,9,36.3,14.5,40.5,15.8c13.7,5.1,25.2,7.3,34.1,7.3
	c6.8,0,16.6-2.1,27.5-5.5c6.2-2.1,17.9-6,34.6-13.2c16.5-6,29.5-11.1,39.9-14.9c15.8-4.7,31.1-9,44.8-11.1c16.6-2.6,33.2-3.4,49-2.1
	c30.3,2.1,58,8.5,82.8,17.9c43.5,17.5,78.6,44.8,104.8,83.6c-11.1,6.8-21.3,14.8-30.9,23.5c-20.8,18.3-38.4,40.1-52.5,64.2
	c-18.3,32.9-27.7,70-27.5,107.5c0.6,46.2,12.4,86.8,35.8,122c16.5,25.6,38.6,47.5,65.5,65.5c13.2,9,24.8,15.1,35.8,19.2
	c-5.1,16-10.8,31.6-17.3,46.9c-14.8,34.4-32.4,67.4-53.3,98.6c-18.4,26.9-32.9,46.9-43.9,60.2c-17.2,20.5-33.7,35.8-50.3,46.8
	c-18.3,12.2-39.9,18.6-62,18.6c-14.9,0.6-29.9-1.3-44.1-5.4c-12.4-4.1-24.6-8.6-36.5-13.8c-12.5-5.7-25.4-10.6-38.6-14.5
	c-16.2-4.3-32.9-6.3-49.7-6.3c-17.1,0-33.7,2.1-49.5,6.2c-13.2,3.8-26,8.4-38.7,13.9c-17.9,7.5-29.7,12.4-36.5,14.5
	c-13.8,4.1-28,6.6-42.2,7.5c-22.2,0-42.8-6.4-63.4-19.2L206.1,1004.8z M498.6,217.2c-29,14.5-56.6,20.7-84.2,18.6
	c-4.3-27.6,0-55.9,11.5-86.9c10.2-26.5,23.9-50.3,42.7-71.7c19.6-22.2,43.1-40.5,69.5-53.8c28.2-14.5,55-22.2,80.6-23.5
	c3.4,29,0,57.6-10.7,88.3c-9.7,27.3-24.2,52.5-42.7,75.1c-18.6,22.2-41.6,40.5-67.7,53.8L498.6,217.2z"/>
</svg>
