<!-- Generated by IcoMoon.io -->
<svg version="1.1" xmlns="http://www.w3.org/2000/svg" width="1024" height="1024" viewBox="0 0 1024 1024">
<title></title>
<g id="icomoon-ignore">
</g>
<path fill="#05386B" d="M512 0c282.581 0 512 229.419 512 512s-229.419 512-512 512-512-229.419-512-512 229.419-512 512-512zM651.904 754.347c-32.683 18.816-43.904 60.672-25.003 93.397 18.816 32.64 60.672 43.861 93.355 24.917 32.683-18.816 43.904-60.672 24.96-93.397-18.816-32.64-60.629-43.861-93.312-24.917zM512 711.68c-30.080 0-58.581-6.699-84.096-18.56l-47.488 85.12c39.68 19.584 84.395 30.763 131.584 30.763 27.563 0 54.101-3.883 79.36-10.923 4.437-27.435 20.693-52.651 46.72-67.712 25.984-14.976 56.021-16.469 81.92-6.656 50.603-49.621 83.499-117.291 88.32-192.64l-97.493-1.408c-8.96 102.016-94.507 182.016-198.827 182.016zM312.32 512c0-67.541 33.579-127.189 84.907-163.413l-49.92-83.669c-59.904 39.68-104.32 101.077-122.923 172.16 21.589 17.237 35.413 44.117 35.413 74.24 0 30.037-13.824 56.277-35.413 74.197 18.603 71.040 63.019 132.437 122.923 172.117l49.92-83.84c-51.328-35.072-84.907-94.635-84.907-161.792zM163.84 443.648c-37.76 0-68.352 30.592-68.352 68.352s30.592 68.352 68.352 68.352 68.309-30.592 68.309-68.352-30.549-68.352-68.309-68.352zM512 312.32c104.32 0 189.867 80 198.827 181.973l97.493-1.451c-4.821-75.307-37.76-142.933-88.32-192.683-25.984 9.899-56.021 8.277-81.92-6.571-25.984-15.019-42.24-40.32-46.72-67.883-25.344-6.827-51.797-10.667-79.36-10.667-47.36 0-91.947 11.093-131.584 30.72l47.488 85.12c25.6-11.904 54.101-18.56 84.096-18.56zM651.904 269.611c32.64 18.859 74.496 7.723 93.397-24.96 18.816-32.64 7.723-74.496-25.088-93.44-32.64-18.773-74.496-7.637-93.397 25.131-18.816 32.597-7.68 74.411 25.088 93.269z"></path>
</svg>
