<?xml version="1.0" encoding="utf-8"?>
<!-- Generator: Adobe Illustrator 23.0.4, SVG Export Plug-In . SVG Version: 6.00 Build 0)  -->
<svg version="1.1" id="Layer_1" xmlns="http://www.w3.org/2000/svg" xmlns:xlink="http://www.w3.org/1999/xlink" x="0px" y="0px"
	 viewBox="0 0 794.8 1024" style="enable-background:new 0 0 794.8 1024;" xml:space="preserve">
<style type="text/css">
	.st0{fill:#05386B;}
</style>
<title></title>
<g id="icomoon-ignore">
</g>
<path class="st0" d="M361,0h167.4v775c-85.9,16.3-148.9,22.8-217.4,22.8c-204.4,0-311-92.4-311-269.7
	c0-170.7,113.1-281.6,288.1-281.6c27.2,0,47.8,2.2,72.8,8.7V0L361,0z M361,390.1c-15.9-5.5-34.1-8.7-53.2-8.7c-1.2,0-2.4,0-3.5,0
	l0.2,0c-84.8,0-133.7,52.2-133.7,143.5c0,89.2,46.8,138.1,132.7,138.1c18.5,0,33.7-1.1,57.6-4.4L361,390.1L361,390.1z M794.8,258.6
	v388.1c0,133.7-9.8,197.9-39.1,253.3c-27.2,53.3-63.1,87-137,123.9L463.2,950c73.9-34.8,109.8-65.2,132.7-112
	c23.9-47.8,31.5-103.3,31.5-249V258.5L794.8,258.6L794.8,258.6z M627.4,0.9h167.4v171.8H627.4C627.4,172.7,627.4,0.9,627.4,0.9z"/>
</svg>
