<svg xmlns="http://www.w3.org/2000/svg" xmlns:xlink="http://www.w3.org/1999/xlink" stroke="green" fill="none" stroke-width="0.1%" stroke-linecap="round" stroke-linejoin="round" width="1200" height="1200" viewBox="-8678342.975487525 4057949.5294166007 3761.916273618117 3761.9162752162665" preserveAspectRatio="xMidYMid meet">
<g id="planet_osm_line" class="line">
<path d="M-8677891.59086 4060069.86837l-13.1357 57.32939 -17.86678 92.10611 -90.05747 387.61566 -36.84675 185.65769 -26.04876 100.56892 -53.21072 125.20504 -172.87917 334.1426 -70.91052 136.91216 "/>
<path d="M-8678250.90791 4059947.13026l-8.8165 -7.41872 -52.00847 -42.50629 -36.42374 -43.59705 -23.28804 -47.17871 -12.49005 -41.09303 -4.77561 -77.63554 9.55121 -65.6796 11.94458 -96.74278 "/>
<path d="M-8675898.66028 4061144.48377l16.51981 170.28821 "/>
<path d="M-8676077.91805 4060817.48393l19.03563 170.57584 14.85002 170.86945 18.28979 170.11298 "/>
<path d="M-8676716.44665 4058103.32694l3.85165 -21.90968 -10.9761 -123.31177 -13.80362 -146.38145 -11.57723 -111.23501 -2.33771 -22.75887 -3.67354 -36.36042 -13.6923 -145.98153 -15.72944 -144.9195 "/>
<path d="M-8676604.90452 4059146.18967l-0.93508 -7.98478 -15.65152 -133.9378 -1.05754 -10.69139 -12.69042 -128.16286 -0.61226 -6.16715 "/>
<path d="M-8676710.88068 4058164.81388l0.33396 5.11716 -1.44715 13.60087 -0.77924 12.92754 1.11319 21.54587 3.11695 33.1267 3.67354 32.4533 1.78111 26.93213 9.46216 86.04773 7.79236 72.71588 1.66979 15.21641 5.78861 59.11489 7.79236 85.37267 5.18749 47.64144 1.26904 11.60735 16.05227 164.49458 0.75697 7.72914 0.77924 7.91765 12.38986 126.31809 1.0798 11.05495 0.95735 9.96426 1.71432 17.77407 0.84603 10.96066 1.83677 23.67176 5.22088 67.43327 -0.04453 4.83396 -0.06679 7.5539 "/>
<path d="M-8675607.92716 4057960.52944l-5.00938 64.63885 0.25603 84.71673 -17.84451 140.43904 "/>
<path d="M-8675493.15677 4058535.26359l144.04742 -14.81237 "/>
<path d="M-8675349.55463 4058514.79559l76.25385 -7.13688 -9.79612 -104.89918 -7.79236 -70.29242 -5.00938 -72.98608 "/>
<path d="M-8675556.7202 4058603.93888l7.01313 89.68121 5.45466 57.22863 "/>
<path d="M-8675252.92931 4058721.35918l6.56785 74.73362 6.45653 70.4242 "/>
<path d="M-8675246.36146 4058796.09279l-73.91614 9.42583 -144.93798 13.19614 "/>
<path d="M-8675531.0054 4058749.50216l15.47341 146.50399 "/>
<path d="M-8675597.79709 4058975.04751l71.24447 -7.00194 "/>
<path d="M-8676133.41082 4059504.40837l71.07749 -6.38224 16.25265 -1.7504 59.11065 -6.46303 "/>
<path d="M-8677086.46151 4060482.46391l9.1282 -44.72573 5.44352 -11.36322 4.11882 -7.00104 3.89618 -4.71224 4.11882 -3.90443 8.34896 -6.32787 9.90743 -4.84688 11.13195 -3.36589 "/>
<path d="M-8675330.74163 4061688.10737l27.38459 -3.23089 42.63536 -4.98096 "/>
<path d="M-8677284.06474 4060583.7626l60.22384 2.96194 51.76356 -3.76974 25.26952 -1.75024 "/>
<path d="M-8675113.11203 4058779.3956l82.59906 -9.29119 146.71909 -14.54275 94.84421 -7.81 71.68975 -7.27139 162.7491 -18.17849 143.15687 -14.13885 "/>
<path d="M-8674871.21477 4058888.60021l91.25972 -7.20397 27.97459 -2.11406 "/>
<path d="M-8674199.62429 4058967.23765l-164.30757 17.90879 -162.52646 15.35037 -163.63965 17.63944 "/>
<path d="M-8674675.96039 4060885.20298l-141.37575 58.56386 "/>
<path d="M-8676800.04759 4059328.90901l12.80174 99.77402 "/>
<path d="M-8676272.3932 4059048.83689l7.05766 56.09577 1.29131 10.96059 "/>
<path d="M-8676045.46842 4059438.48534l-0.61226 57.79038 "/>
<path d="M-8677225.18786 4060426.18646l47.54455 31.96239 12.24514 12.25178 22.37522 22.61863 8.12632 10.09759 8.015 11.71319 "/>
<path d="M-8675048.32408 4060082.7803l-143.3795 15.61816 "/>
<path d="M-8675322.28135 4060283.92985l146.49645 -14.54081 "/>
<path d="M-8675315.82482 4060347.47836l146.60777 -13.329 "/>
<path d="M-8675624.84773 4060945.3824l-11.35459 -128.43698 "/>
<path d="M-8674189.71685 4059073.20883l-163.86229 17.37002 -163.08305 14.94628 -82.71038 8.75231 "/>
<path d="M-8674764.45938 4059311.27006l8.36009 109.92659 "/>
<path d="M-8674811.77017 4058602.05368l-6.34521 -53.32431 "/>
<path d="M-8674745.64639 4059594.14978l36.61298 -4.09322 50.77282 -4.96841 "/>
<path d="M-8675134.93065 4059212.16825l-144.60402 15.48471 -83.15566 7.54037 "/>
<path d="M-8677188.07394 4059466.88238l145.19401 -13.65319 "/>
<path d="M-8677043.89294 4059442.99602l68.62847 -7.58063 72.46899 -8.75207 4.45278 0.40394 "/>
<path d="M-8676953.77981 4060600.86104l9.57348 24.50323 2.00375 9.02041 1.33583 9.0204 0.5566 7.67407 -0.33396 5.7892 -1.11319 5.92383 -3.22827 9.42427 -2.11507 4.44287 -5.56597 9.42426 -7.90368 8.21257 -8.46028 6.86624 -13.58098 5.78918 -8.90556 2.01948 -8.015 0.94242 -6.23389 -0.13463 -6.90181 -1.21169 -9.79612 -2.69264 -9.79612 -4.57749 -7.01313 -4.98139 -8.12632 -8.75109 -5.1207 -8.48184 -3.89618 -9.155 -3.78486 -17.23297 -15.51794 -47.56582 "/>
<path d="M-8675113.89126 4058707.08567l-4.45278 -72.84901 -6.01125 -72.44551 -7.68104 -41.20527 -11.35459 -128.86843 "/>
<path d="M-8674568.42576 4058578.0847l-162.86042 19.12132 -80.48399 4.84765 -81.26323 6.73285 -6.45653 4.71299 -73.02559 7.40613 -70.91052 5.52093 -74.91802 7.81009 "/>
<path d="M-8674762.57808 4059421.82948l5.00938 53.57603 6.11144 59.67524 5.81088 59.06902 6.10031 59.52651 18.41224 169.40849 "/>
<path d="M-8674709.03341 4059590.05656l6.35634 60.25361 "/>
<path d="M-8674883.21502 4059551.22479l10.77573 115.10807 "/>
<path d="M-8675029.95637 4059565.75306l11.63289 115.96965 "/>
<path d="M-8674858.41303 4059664.71713l13.58098 92.90426 5.56597 77.28499 7.34709 91.15253 "/>
<path d="M-8674939.67626 4061601.14227l7.34709 80.3687 3.4509 37.28981 4.5641 40.78979 6.01125 61.1171 "/>
<path d="M-8675010.1415 4061608.81569l8.68292 79.56092 5.45466 63.67526 "/>
<path d="M-8675078.38035 4061616.35448l8.015 79.42625 "/>
<path d="M-8674914.85201 4058451.50612l-84.15754 10.36872 "/>
<path d="M-8674989.43607 4058548.3254l-9.57348 -86.45055 -6.67917 -83.75802 "/>
<path d="M-8677449.04022 4060599.78397l164.97549 -16.02137 -48.20134 -47.79499 -19.25827 -6.05853 -43.74856 2.82732 -59.11065 14.67511 -17.6998 12.38631 -0.77924 5.92388 -2.00375 15.2136 7.34709 16.15601 18.47904 2.69267 "/>
<path d="M-8675111.63148 4060206.16322l15.77397 172.14681 "/>
<path d="M-8675480.80031 4059420.06561l12.17835 133.82517 "/>
<path d="M-8676062.33333 4059498.02613l6.12257 61.80252 "/>
<path d="M-8676989.59129 4059202.20416l14.99474 145.8249 "/>
<path d="M-8675504.84532 4058408.68454l-1.66979 -72.58161 "/>
<path d="M-8678365.42227 4059023.65699l26.83913 12.28026 37.93768 18.15106 "/>
<path d="M-8675235.89743 4058719.60865l-6.45653 -13.0616 -5.67729 -63.15374 -6.01125 -69.61764 "/>
<path d="M-8675413.11806 4058660.09071l78.59156 -6.86748 86.49524 -9.82992 "/>
<path d="M-8675420.01986 4058589.79988l6.90181 70.29083 8.12632 77.15782 "/>
<path d="M-8675549.70707 4058693.62009l-74.2501 8.61798 "/>
<path d="M-8675145.17204 4061621.33547l8.46028 81.3109 "/>
<path d="M-8675967.26648 4061750.70568l11.02063 -11.98115 8.46028 -7.40409 22.2639 -14.67358 11.24327 -5.92328 11.68855 -4.98095 14.69417 -4.30785 18.14508 -3.09627 46.08627 -4.03861 "/>
<path d="M-8674888.02402 4059667.9486l10.79799 83.88313 6.17823 86.30607 "/>
<path d="M-8674808.34153 4059540.60124l-74.87349 10.62355 -69.4077 6.66496 -77.33365 7.8633 -70.01996 7.12275 "/>
<path d="M-8674757.56871 4059475.40552l88.13164 -7.37864 "/>
<path d="M-8674745.64639 4058457.16179l20.48279 -0.53864 136.81165 -14.00452 5.45466 68.00255 "/>
<path d="M-8674972.51551 4058620.90565l-6.45653 -73.65751 "/>
<path d="M-8674687.09234 4060772.38255l38.40522 -5.11599 56.21634 -4.98136 42.96932 -0.40389 10.68667 -9.15494 9.35084 -42.67826 -1.22451 -49.14078 -13.46966 -1.07706 -19.36959 -1.88486 -59.44461 -2.28875 -24.04501 0.13463 -23.71105 2.28875 -11.91119 16.42517 -13.58098 6.73162 "/>
<path d="M-8676993.08672 4061432.15075l-19.38072 16.65291 -31.36983 33.46728 -23.8669 26.10334 -19.15808 26.83024 -14.86115 30.96306 -10.24139 31.67647 -4.70881 23.54527 -1.39149 24.17794 3.78486 66.73138 6.84615 68.42719 15.60699 151.14953 18.73507 198.53214 9.27291 100.20706 0.93508 10.00181 1.6364 31.90343 -3.5177 82.74658 -18.47904 42.80668 -20.92806 38.90279 -5.34334 8.07669 -56.10502 93.68915 -18.14508 30.01805 -22.53106 31.37753 -62.73967 110.36584 -59.48914 98.6405 -38.24938 65.31117 -18.81299 33.51692 -20.81674 32.96494 -14.05965 24.16166 -59.85649 101.37075 -37.11392 63.62715 -38.78371 68.09559 -20.97259 37.24444 -36.49053 89.80611 -13.91494 68.10788 -4.5641 43.74496 -4.05203 55.22609 5.1207 51.02636 4.87579 37.05487 9.75159 41.22727 15.80737 48.45498 11.13195 27.05394 14.29342 27.74031 13.61437 29.1535 162.13684 344.43907 7.40275 16.74321 31.50342 64.61724 14.56059 22.27476 30.89116 61.61539 53.29977 113.02797 57.34067 118.03349 27.93006 65.54372 11.91119 54.10357 3.19487 59.79625 8.37123 247.64708 -3.02789 72.59331 "/>
<path d="M-8676463.5399 4059135.52534l-0.96848 -11.5665 -11.26553 -134.23421 -8.015 -83.35016 -5.1207 -61.80608 -17.92244 -171.28137 -14.24889 -146.64153 -6.90181 -62.61611 -9.23952 -83.0847 -13.58098 -145.70268 -15.02813 -151.36041 -14.02626 -140.31991 -9.35084 -102.34575 -4.45278 -43.36256 -9.90743 -99.65371 -7.01313 -71.23947 -14.13758 -145.71238 -8.34896 -81.47585 -5.78861 -64.77709 -11.02063 -111.10501 -3.18374 -32.71222 -18.63488 -183.72347 -2.33771 -20.72665 "/>
<path d="M-8676764.63686 4059170.76337l11.08742 5.31868 14.17097 0 45.41835 -4.71276 65.1553 -2.54489 7.20237 -0.28277 "/>
<path d="M-8675007.02455 4058999.01564l-31.3921 -4.57818 -4.5641 -0.2693 -110.87421 11.31079 -145.71721 13.73452 -151.50583 15.35033 -139.59464 14.13844 -146.04004 14.94633 -145.58363 13.16891 -143.9695 14.43462 -146.78588 14.20569 -90.99255 10.43545 -53.88977 5.52069 -55.64861 5.25138 -89.95728 8.86002 -133.63905 10.08533 -7.72557 0.579 "/>
<path d="M-8677250.68002 4059842.43289l-10.74233 14.83757 -5.96672 15.52423 0.32283 31.96395 "/>
<path d="M-8675805.96454 4060793.25038l45.08439 -5.6545 47.98983 -6.00455 145.55023 -13.58429 145.09382 -15.28066 145.0493 -13.73242 "/>
<path d="M-8677399.16909 4060955.21032l208.83536 -22.88697 138.48145 -17.95957 5.78861 -0.75393 146.38513 -14.27074 145.60589 -13.86687 13.02438 -1.21167 144.04742 -15.07856 145.19401 -14.7824 11.95571 -1.72327 145.60589 -13.51689 145.56137 -14.56703 70.7658 -7.1085 74.2501 -7.47201 48.09002 -3.29846 45.52967 -2.96188 "/>
<path d="M-8674696.22053 4060681.23683l-145.60589 14.94418 -50.42773 4.84676 -27.38459 2.55801 "/>
<path d="M-8675753.49966 4061130.06523l17.22113 149.46192 "/>
<path d="M-8676490.86884 4061203.32901l16.49755 170.30079 15.40662 165.26336 0.44528 4.76562 0.89056 8.21195 18.36772 161.94911 15.80737 169.21618 "/>
<path d="M-8676185.78664 4058761.21717l7.23577 -90.48861 "/>
<path d="M-8675757.87452 4058014.12585l79.48212 5.38656 65.45586 5.65588 "/>
<path d="M-8676317.93401 4059121.41393l-1.02414 -11.02791 -11.54383 -135.06921 -10.01875 -89.27502 -4.5641 -56.01606 -17.25452 -170.60831 -5.89993 -72.04137 -7.68104 -74.19636 -16.03001 -146.10496 -6.90181 -71.63925 -7.12445 -74.06361 -14.91681 -145.43541 -3.11695 -14.67831 -2.89431 -25.72075 "/>
<path d="M-8676429.91028 4057970.2253l-4.34146 -40.26477 -5.67729 -55.88612 -9.23952 -90.76503 -15.91869 -170.8934 -14.80549 -145.57789 -14.13758 -146.11845 "/>
<path d="M-8675597.79709 4058975.04751l-78.92552 7.13659 -66.68037 5.92471 "/>
<path d="M-8676884.42777 4059439.4548l97.18192 -10.77177 47.68927 -5.52054 "/>
<path d="M-8676154.39454 4061513.23415l17.81112 170.16151 "/>
<path d="M-8676187.62341 4061173.19964l16.73132 170.27431 12.37873 137.72 "/>
<path d="M-8677724.88992 4059265.62409l8.5716 112.16218 4.78674 89.4058 0.77924 31.10336 -1.11319 28.67964 -1.89243 21.67799 -5.23202 40.93224 -3.00563 15.21491 -3.78486 15.08024 -21.29542 66.01622 -45.97495 87.77418 -27.47365 53.15698 -17.91131 42.39884 -17.92244 52.55064 -35.23262 148.09106 "/>
<path d="M-8675062.1277 4059943.0237l147.72096 -13.59876 82.48774 -3.36603 62.33891 -8.75169 "/>
<path d="M-8677290.75504 4059416.26855l96.71437 -9.07524 "/>
<path d="M-8674738.2993 4058525.83754l155.40201 -15.21636 8.015 -0.80795 29.38835 -2.15453 "/>
<path d="M-8677394.71631 4058758.1201l54.43523 -4.84759 82.19831 -7.23099 147.10871 -13.9503 149.84717 -14.09844 150.83791 -14.81213 36.95807 -3.3664 101.67922 -10.78594 7.5252 -0.79447 11.68855 -1.2119 "/>
<path d="M-8678055.73145 4058014.93383l-8.2933 -424.26688 -3.39524 -173.9264 -0.89056 -20.33536 -3.11695 -29.08905 -5.45466 -32.05191 -3.22827 -13.46722 -4.89806 -16.5647 -7.01313 -19.79687 -15.13945 -34.47626 "/>
<path d="M-8677256.43524 4060246.85074l-88.29862 10.55557 -70.7992 7.67433 "/>
<path d="M-8674946.80071 4061809.13045l-4.67542 -60.57869 -11.02063 0.6731 -4.89806 -64.483 -8.46028 -85.34967 "/>
<path d="M-8676829.10198 4061577.31426l2.44903 0.40387 7.79236 -0.26924 131.46832 -12.65445 11.13195 -0.26924 69.90864 -5.78874 36.84675 -3.0963 15.47341 -1.75009 23.15445 -2.55782 72.35767 -7.67346 20.3492 -2.15395 54.07901 -5.70798 12.03364 -0.95582 145.50571 -14.44497 3.91845 -0.43079 36.31242 -4.68486 31.92643 -2.04626 73.4152 -7.36385 145.03816 -14.29692 143.89157 -14.4181 146.87494 -14.14887 290.16538 -30.68064 145.27194 -12.38536 145.0493 -13.59699 144.93798 -14.80862 145.0493 -15.75101 145.38325 -13.46242 "/>
<path d="M-8677092.98483 4061586.69738l113.39003 -6.15221 "/>
<path d="M-8676986.06246 4061516.86895l145.38325 -14.80848 "/>
<path d="M-8677273.17769 4060076.88309l144.69307 -14.37951 144.72647 -14.37953 144.97137 -14.40647 11.90005 -1.18483 48.82473 -4.84704 97.61606 -9.70756 144.09195 -14.32573 12.01137 -1.18484 55.68201 -5.53372 89.83483 -8.92667 145.5725 -14.47387 67.13678 -6.66472 77.89025 -7.74185 "/>
<path d="M-8675360.57526 4059886.87822l144.93798 -14.40668 68.01621 -7.00138 77.14441 -7.00139 121.27145 -12.4544 24.22312 -2.49088 53.93429 -5.38569 31.78171 -3.23142 59.11065 -5.65498 59.02159 -6.16663 15.16171 -1.57532 70.77693 -7.56691 45.15119 -4.13353 66.70264 -6.81292 57.99745 -5.38571 6.45653 -1.61571 5.89993 -4.17393 11.57723 -12.79108 13.6923 -17.23432 14.34908 -17.1401 50.91754 -60.83208 43.60384 -52.09395 2.78299 -4.30863 2.11507 -5.52044 0.89056 -3.77006 0.89056 -8.61728 "/>
<path d="M-8675913.83312 4060754.07269l51.09565 -5.65452 50.76169 -5.65453 43.52592 -2.42337 "/>
<path d="M-8676486.23795 4058229.04757l-12.02251 -95.61004 "/>
<path d="M-8675365.47331 4058274.15907l4.11882 -4.57847 3.4509 -2.28924 4.23014 -1.88525 3.89618 -0.80797 53.87863 -5.11712 67.12565 -6.46373 53.43336 -4.98246 "/>
<path d="M-8677054.41263 4058286.81719l40.07502 -2.96254 9.6848 -1.48127 151.39451 -16.69795 30.2789 -2.4239 114.43644 -12.1195 12.02251 -1.21195 64.89926 -6.5984 80.81795 -8.07968 64.5653 -6.19443 80.26135 -7.67571 145.93985 -14.27413 46.75419 -4.44384 145.60589 11.98489 48.86926 4.03985 97.51587 7.94503 145.27194 11.8502 145.49457 11.85019 "/>
<path d="M-8674851.28859 4059087.07791l165.86604 -16.56212 163.52833 -15.88888 51.4296 -5.52072 55.54843 -4.84746 56.43898 -5.79003 163.86229 -16.83149 44.86175 -0.53861 "/>
<path d="M-8676798.71176 4061155.80588l5.74409 77.54472 "/>
<path d="M-8676914.70667 4060729.03121l15.02813 170.30791 7.23577 72.96909 9.79612 97.60552 16.30831 170.73359 16.80924 170.25984 "/>
<path d="M-8677066.9806 4059210.71403l6.35634 61.35975 4.09656 42.58942 3.79599 39.45196 8.83877 88.88086 1.01301 10.23317 8.30443 83.5481 9.52895 95.92135 7.46954 75.11808 16.8983 170.09436 16.92056 170.21298 4.06316 40.99776 12.82401 128.95685 16.96509 170.75988 10.53082 106.01174 "/>
<path d="M-8676694.40539 4061649.06739l-128.46269 12.92359 7.34709 88.98393 17.58848 169.75409 "/>
<path d="M-8675284.65536 4059178.64041l5.1207 49.01256 13.94833 133.32925 14.66078 149.29673 1.73658 21.81267 7.94821 83.34556 8.79424 86.84569 2.44903 27.73662 5.6439 56.76561 8.71632 85.68645 8.68292 85.76659 9.50668 84.00216 5.74409 56.15817 10.21913 114.71207 5.69956 56.2785 6.56785 64.76032 4.34146 50.35392 16.69792 169.50528 4.34146 53.31488 29.83362 288.38068 "/>
<path d="M-8675047.21089 4061576.23728l-17.47716 -169.89387 -2.89431 -94.37163 -4.78674 -14.40487 -14.47153 -9.96226 -14.36021 -5.11576 -11.68855 -16.15504 -6.90181 -32.31014 "/>
<path d="M-8675799.61933 4058532.97441l18.70167 1.21192 41.74481 4.03973 84.26885 7.0022 136.03242 11.04193 11.91119 1.48123 7.45841 0 8.23764 -1.21192 "/>
<path d="M-8677408.74257 4058614.84609l54.54655 -4.84765 81.59719 -7.40613 144.82666 -15.35091 152.06242 -14.8123 75.09613 -7.79666 76.18706 -7.41963 146.05117 -13.60042 11.35459 -1.07726 145.93985 -15.88962 145.16062 -13.4658 63.78607 -6.46359 58.44273 -5.25167 16.80924 -3.09714 6.79049 -0.53863 42.63536 2.55851 96.62532 8.48347 146.71909 11.17662 "/>
<path d="M-8675180.349 4060610.15073l25.93744 289.32301 "/>
<path d="M-8674953.37969 4061050.55424l17.37697 170.68003 16.25265 170.30052 18.14508 169.35561 0.92395 10.87744 "/>
<path d="M-8675153.85496 4059005.47895l0.66792 12.79196 0.97961 10.31434 12.82401 135.91687 4.45278 47.66612 13.95946 134.44701 12.75721 133.77218 3.01676 37.3913 5.22088 55.09707 12.5791 116.21193 8.34896 83.74833 8.5716 85.6327 8.34896 84.55493 7.93708 84.98514 5.86654 54.77146 10.87591 116.00475 5.59937 50.94693 9.90743 99.49665 1.66979 20.73397 9.90743 98.95705 7.79236 69.74064 10.35271 51.69935 "/>
<path d="M-8674959.26849 4060880.89483l4.34146 44.15854 "/>
<path d="M-8676892.44277 4060972.3082l57.0735 -1.87134 "/>
<path d="M-8675861.62428 4058084.55491l10.68667 -145.3025 "/>
<path d="M-8675029.84505 4060692.14204l106.97803 -24.77235 3.22827 36.21608 7.90368 87.51051 7.79236 84.14408 "/>
<path d="M-8675007.02455 4058999.01564l1.40263 14.9464 12.73495 135.86319 17.82225 182.28841 11.65515 115.7566 5.55484 55.25899 5.23202 54.76053 0.8015 8.42882 10.14121 107.41973 16.69792 169.78519 4.0075 32.54299 6.56785 53.35846 4.67542 69.8786 1.58074 14.19109 "/>
<path d="M-8676188.79227 4057909.76076l145.60589 12.65853 146.16249 12.79318 46.08627 4.03995 98.51775 8.48389 144.4927 12.79315 "/>
<path d="M-8676048.60763 4060357.81842l145.90646 -14.50033 "/>
<path d="M-8677206.78675 4059282.40136l77.4895 -7.24412 0.31169 3.2989 "/>
<path d="M-8677053.97848 4060503.37266l25.82612 16.65427 25.05802 21.32605 12.80174 12.38632 7.79236 9.1551 28.72043 37.96665 "/>
<path d="M-8675770.00834 4060690.66109l1.55847 49.67918 7.56973 47.25561 9.6848 119.41713 5.34334 43.08141 0.5566 7.4046 "/>
<path d="M-8674713.47506 4060510.79101l-12.5791 -134.23125 -1.44715 -23.69595 -1.66979 -13.19436 -1.89243 -13.32901 -15.58473 -155.9102 -16.92056 -170.85742 -6.01125 -82.2656 -10.57535 -88.05582 -17.25452 -170.18934 -10.93157 -118.46083 -2.87204 -24.12857 -2.58261 -27.65636 -5.399 -55.68993 -0.47867 -4.90116 -6.67917 -66.05812 -3.56222 -29.8919 -1.00188 -14.27273 -16.14133 -183.12347 -2.22639 -28.81529 -2.00375 -18.98581 -5.45466 -52.11016 -3.31732 -39.29149 -1.3581 -16.05057 "/>
<path d="M-8675937.6555 4059243.67626l17.09867 182.39462 "/>
<path d="M-8674691.54512 4059992.03296l184.12244 104.6152 23.93369 13.7332 82.37642 46.31576 20.48279 11.44427 122.11748 67.9922 31.83737 17.63751 7.12445 2.82739 6.34521 0.40391 4.5641 -0.40391 14.13758 -2.96202 "/>
<path d="M-8674674.51323 4059413.31977l5.07617 54.7071 5.72182 59.21748 5.45466 57.84379 6.23389 60.10553 16.83151 168.74887 12.44552 120.73341 3.89618 49.81713 "/>
<path d="M-8674641.11739 4060160.06308l23.61086 167.46216 "/>
<path d="M-8674694.66206 4058961.71689l0.91282 11.29736 3.65128 45.122 4.67542 52.37954 7.01313 71.09575 "/>
<path d="M-8676025.74261 4061329.0422l8.71632 99.64873 "/>
<path d="M-8674889.88305 4061695.37687l10.4529 -0.91542 "/>
<path d="M-8675182.01879 4061705.87725l45.30703 -3.23088 31.83737 -3.23089 34.50904 -3.63475 36.17883 -3.90399 32.72793 -3.50013 34.06376 -3.63475 35.06564 -3.23089 40.63161 -4.71172 "/>
<path d="M-8675920.43437 4060164.88314l144.83779 -14.39286 "/>
<path d="M-8677028.31934 4061084.06309l145.67269 -14.14936 144.82666 -14.13592 11.57723 -0.9424 145.49457 -14.94371 145.80627 -15.77842 12.03364 -0.96932 145.70608 -12.48005 145.51684 -15.01108 72.80295 -7.59306 72.17956 -7.37765 47.48889 -4.46968 98.18379 -9.42402 95.73476 -9.2894 49.42585 -4.69856 71.02184 -7.41807 74.33916 -7.94313 145.18288 -14.27071 145.0493 -14.27073 40.18634 -3.09648 65.6785 -6.3276 40.40898 -3.76963 38.8505 -3.635 64.89926 -6.05834 50.98433 -5.11594 55.32579 -5.65446 "/>
<path d="M-8675882.29631 4059076.81748l1.41376 14.25957 0.92395 9.29093 6.01125 60.48512 7.53633 75.80792 18.11168 182.23315 16.99849 171.04121 10.09668 101.64328 3.4509 34.71119 6.73483 67.75249 30.42362 306.14683 4.99825 50.30111 11.96685 120.46055 8.48255 85.35967 8.5382 85.95142 16.82038 169.19476 7.12445 71.74579 9.77385 98.38887 17.02075 171.20913 16.87603 169.86028 16.11906 162.1841 0.92395 9.28913 16.77585 168.87242 "/>
<path d="M-8675736.71268 4059063.64857l1.21338 12.23982 1.05754 10.67785 5.89993 59.27334 7.62539 76.80442 4.46391 44.89211 13.60324 136.89694 3.29506 33.12324 6.18936 62.30104 7.51407 75.61715 4.63089 46.57377 30.51267 307.08049 15.56246 156.61364 16.96509 170.76187 8.48255 85.35978 8.5716 86.23426 16.77585 168.83146 17.00962 171.07729 16.83151 169.43223 "/>
<path d="M-8675521.54324 4061585.93004l-2.22639 4.30789 -1.66979 13.32753 -0.66792 25.84728 -1.55847 68.11806 -0.89056 7.53873 -2.44903 13.05815 -2.11507 7.80796 -13.1357 32.57798 -30.2789 65.15567 -8.46028 15.07729 -8.5716 13.46185 -8.46028 11.57718 -20.48279 25.17359 -75.58593 96.5207 -8.68292 11.84628 -5.00938 8.34623 -5.34334 8.88469 -2.00375 4.71158 -3.4509 12.51932 -2.78299 16.55779 -1.44715 16.42315 "/>
<path d="M-8677389.91844 4058449.71516l13.31381 6.73294 11.29893 5.6422 12.3008 0.75409 65.6785 -5.10357 145.41665 -17.41139 151.50583 -14.67783 74.2835 -7.44665 77.11101 -7.63518 145.38325 -14.00458 11.68855 -1.21194 144.71534 -14.40857 145.27194 -13.86995 166.42264 -16.02453 "/>
<path d="M-8675590.67264 4059048.70224l1.55847 13.59982 0.8349 9.86996 5.1207 60.94308 8.2933 74.60972 13.80362 138.55383 3.66241 43.70672 8.80537 81.91935 3.4509 37.56637 5.66616 51.46168 "/>
<path d="M-8675489.51662 4060071.26863l16.72019 170.78902 16.59774 171.25767 16.69792 169.37022 4.67542 41.87094 12.5791 128.1699 16.92056 170.44218 16.33057 170.66849 6.56785 69.89835 9.16159 101.25222 18.2564 167.33815 8.90556 98.67854 8.46028 72.96502 0.5566 16.82766 1.89243 30.02048 4.45278 37.28991 1.66979 13.05817 3.78486 40.11676 0.66792 18.71213 -0.33396 18.7121 -1.11319 21.53907 -3.00563 23.82755 -5.1207 22.75055 -4.11882 14.94264 -8.5716 25.71207 -3.4509 8.61555 -9.23952 18.57726 -14.47153 26.38504 -22.70918 30.69272 -7.34709 8.88472 -25.7148 29.88492 -38.40522 46.44262 -58.10877 74.71164 -12.80174 30.01913 "/>
<path d="M-8676816.18892 4058641.10415l145.60589 -12.1191 "/>
<path d="M-8676373.58262 4059126.66532l-1.00188 -10.40851 -13.02438 -135.28459 "/>
<path d="M-8677389.91844 4058449.71516l10.29705 -18.6368 3.39524 -12.42904 0.2449 -16.57656 -2.03715 -19.18898 -0.72358 -9.15686 -4.39712 -44.62633 -14.69417 -156.07233 -12.80174 -146.91733 "/>
<path d="M-8676150.9659 4060309.44354l-7.13558 -71.81547 -48.43511 4.80656 "/>
<path d="M-8675443.063 4059065.53369l14.24889 128.05287 4.67542 46.72345 12.67929 135.17377 17.59961 170.97454 7.90368 85.40552 8.23764 85.09519 17.1432 169.91918 8.015 85.76648 8.05953 84.20401 9.75159 89.61586 7.09105 81.15991 5.37673 56.30536 6.45653 63.54851 5.67729 51.43095 15.91869 169.37043 17.03188 170.71422 16.92056 169.90387 12.24514 124.80098 4.98711 45.63885 2.02601 21.13652 14.36021 149.43538 16.92056 170.03084 8.12632 84.94715 8.12632 84.81189 11.46591 116.1778 11.79987 119.81132 3.67354 34.19311 1.44715 13.19259 8.23764 88.17457 0.33396 13.05786 -0.5566 8.34625 -1.33583 8.61548 -4.0075 14.67322 -2.22639 5.6539 -6.01125 11.84625 -7.01313 10.50007 -9.6848 11.17315 -15.47341 14.13469 -46.97683 38.36549 -5.23202 4.84616 -4.78674 4.44231 -15.69605 17.90384 -6.12257 7.94229 -11.57723 18.03841 -28.16383 55.59581 -22.37522 46.71104 "/>
<path d="M-8675910.04826 4060803.75159l3.33958 36.61954 7.01313 17.50194 16.5866 10.36652 14.47153 4.57742 18.2564 0.13463 6.45653 0.13463 19.03563 -6.32761 13.91494 -9.28948 5.89993 -16.82879 0.33396 -23.29109 -1.22451 -24.09892 -6.01125 -50.48674 "/>
<path d="M-8676765.87251 4060712.33686l152.39638 -13.4632 144.78213 -14.40565 11.96685 -1.54827 128.51835 -12.46696 "/>
<path d="M-8676914.70667 4060729.03121l-147.38701 14.27096 -10.4529 0.90203 -3.57336 0.30965 -130.46644 13.19389 -5.34334 -2.82726 -9.6848 -2.42337 -163.86229 19.79081 "/>
<path d="M-8676463.5399 4059135.52534l1.31357 13.31695 0.95735 9.61404 5.07617 51.11318 8.40462 84.5463 18.14508 182.54192 16.99849 171.04034 16.8983 170.10872 16.92056 170.20042 16.88717 169.95551 16.96509 170.76079 17.00962 171.14865 16.78698 168.92464 11.18761 112.59259 1.03527 10.36659 4.70881 47.40348 17.04301 171.50445 16.8649 169.76517 16.92056 170.24728 5.79975 58.31914 11.06516 111.40056 0.58999 6.31379 16.36397 164.2784 "/>
<path d="M-8674906.39173 4058538.22607l6.01125 -2.5585 8.12632 -4.84768 7.79236 -6.05961 5.34334 -5.117 4.0075 -5.11701 9.90743 -14.67774 13.35834 -16.96695 139.59464 -167.11236 14.36021 -14.13935 7.90368 -6.46371 6.90181 -4.71312 14.02626 -7.94499 7.12445 -3.36652 9.6848 -2.96254 51.87488 -13.06211 16.47528 -4.17449 190.46765 -43.49562 223.08426 -49.01694 164.67492 -38.44612 "/>
<path d="M-8677094.46538 4060402.49061l38.38296 -4.92767 25.7148 -1.34636 "/>
<path d="M-8676317.93401 4059121.41393l1.33583 13.45161 0.87942 8.86001 13.62551 137.11387 18.02263 181.35724 4.90919 49.40181 12.0893 121.63875 16.8983 170.09547 16.92056 170.20064 12.76835 128.52732 4.11882 41.42841 9.82951 98.94556 7.13558 71.8289 16.99849 170.98731 16.83151 169.35568 16.88717 169.98591 16.99849 171.06039 16.92056 170.3039 16.92056 170.2475 13.58098 140.06253 3.28392 29.60354 16.92056 170.25586 "/>
<path d="M-8676946.21008 4059527.99838l7.56973 75.45538 "/>
<path d="M-8675038.75061 4060595.34107l8.90556 96.80097 9.90743 97.74256 9.6848 96.12616 "/>
<path d="M-8677410.635 4058026.11094l35.3996 -4.57857 30.05626 -1.8853 12.10043 -1.15811 10.36384 -1.02345 137.94711 -13.7088 144.4927 -14.13974 13.35834 -1.07731 144.71534 -15.08241 83.60094 -8.48387 60.22384 -5.52125 14.80549 -1.34665 143.71346 -14.54379 145.60589 -13.60116 59.77857 -6.86792 85.15941 -6.73326 "/>
<path d="M-8676173.05169 4059105.4578l1.40263 14.12489 0.94622 9.50635 6.46766 65.10346 7.07992 71.27002 18.12281 182.31348 5.62163 56.63238 11.36572 114.42186 16.90943 170.09569 16.90943 170.20085 10.08555 101.46494 6.80162 68.49101 8.8833 89.29216 8.09293 81.46906 5.75522 57.97449 5.15409 51.84827 6.08918 61.23209 16.83151 169.38282 6.91294 69.57803 9.95196 100.1523 16.96509 170.67019 16.97622 170.86956 16.92056 170.24771 8.78311 88.4481 8.0818 81.32587 16.93169 170.32338 "/>
<path d="M-8678300.64546 4059054.08831l10.02989 -84.1576 4.94259 -119.82803 -0.37849 -97.57077 "/>
<path d="M-8678286.05147 4058752.53191l-14.59399 67.83911 -21.20636 82.69099 -40.56482 113.45843 -3.00563 7.13656 "/>
<path d="M-8676100.96119 4058672.20977l2.11507 -64.90447 3.11695 -43.09031 4.89806 -55.34436 11.57723 -146.64366 11.57723 -147.58819 12.24514 -146.91679 12.24514 -145.30271 6.12257 -71.77673 0.89056 -10.23462 4.5641 -63.69723 "/>
<path d="M-8676220.48493 4060102.06066l-82.07586 5.62792 "/>
<path d="M-8676026.26581 4059091.2521l0.89056 14.40767 0.93508 9.56022 6.07804 62.20856 8.015 73.24947 3.78486 46.72322 9.1282 86.57883 4.51957 49.28097 5.94446 56.55166 7.68104 82.94193 3.4843 31.53393 "/>
<path d="M-8675936.5757 4060012.61947l11.14308 101.96262 4.99825 50.30104 4.02977 40.45879 7.94821 80.00161 5.75522 57.97456 5.15409 51.84834 6.11144 61.5149 16.82038 169.18108 "/>
<path d="M-8677362.54498 4059077.92162l136.58902 -13.5998 "/>
<path d="M-8677095.89027 4057459.05413l0.7681 13.03611 1.44715 24.37533 6.412 58.06963 9.91857 58.15013 6.23389 60.73546 16.69792 169.68049 14.13758 146.51571 13.24702 123.62116 8.23764 20.87272 "/>
<path d="M-8676914.70667 4059187.25801l-1.59187 -17.77382 -11.98911 -134.24713 "/>
<path d="M-8676199.93535 4059626.57231l16.8983 170.09557 16.92056 170.20074 "/>
<path d="M-8676078.14069 4060060.5917l76.81045 -7.29747 "/>
<path d="M-8676979.69499 4060089.12182l121.4273 -10.3807 23.82237 -2.01959 "/>
<path d="M-8676031.83179 4058315.76922l103.08185 8.75292 "/>
<path d="M-8676013.61992 4060709.85963l11.06516 0.72701 37.40335 -1.34632 48.20134 -4.03896 49.42585 -4.84675 97.51587 -9.69352 47.34418 -7.45863 "/>
<path d="M-8677298.10212 4059379.30779l100.20981 -10.65065 "/>
<path d="M-8676164.23519 4059194.19249l145.87306 -16.76394 144.41478 -16.57545 145.40552 -15.01353 145.38325 -12.72449 "/>
<path d="M-8676468.6606 4059996.93387l3.46204 31.58661 7.12445 76.47531 5.45466 50.62422 0.21151 11.33656 "/>
<path d="M-8676672.88734 4058480.57892l144.90458 -16.54954 "/>
<path d="M-8676628.28162 4060547.27686l14.80549 151.59679 16.47528 170.30836 16.25265 170.70969 17.75546 170.61288 15.84076 170.35453 14.02626 146.94118 2.24865 23.53195 1.11319 10.23127 16.47528 158.98733 16.47528 170.1584 3.67354 32.17365 3.78486 39.44289 "/>
<path d="M-8676764.63686 4059170.76337l1.70319 17.1275 13.414 135.02629 9.96309 100.24534 8.2933 83.46754 16.99849 171.03988 16.90943 170.10827 16.90943 170.19997 16.88717 169.95506 10.94271 110.05272 6.03352 60.70761 14.48267 145.72925 "/>
<path d="M-8675965.15141 4060709.24032l9.57348 97.47315 12.5791 118.47453 4.45278 41.73505 -0.66792 9.28939 "/>
<path d="M-8678300.64546 4059054.08831l53.11053 12.25329 29.61098 24.3719 10.57535 10.63744 5.56597 7.13651 6.34521 10.90673 5.34334 10.63741 3.56222 8.61765 16.03001 44.83858 13.91494 36.89407 5.45466 11.31057 7.79236 12.92635 10.90931 14.13818 4.67542 4.98202 5.78861 4.98202 6.90181 4.71272 11.13195 5.78991 8.90556 3.90482 9.35084 3.23157 9.57348 2.28903 10.46403 1.61579 10.57535 0.67324 10.68667 -0.2693 21.26202 -2.01973 143.52422 -11.08161 100.92225 -7.79618 53.77845 -4.14719 70.46524 -5.61487 69.686 -5.56101 "/>
<path d="M-8675104.87439 4061699.41548l-8.46028 -86.56115 "/>
<path d="M-8676019.47532 4058712.4719l-43.52592 11.58039 "/>
<path d="M-8676338.29434 4061874.68969l-16.76472 -168.73167 -15.96321 -162.16462 -1.03527 -8.95237 -16.8649 -169.70602 -16.92056 -170.24706 -17.06528 -171.74399 -16.94283 -170.46761 -4.57523 -46.04366 -1.603 -16.18264 -10.6978 -107.53032 -16.69792 -168.07623 -17.05415 -171.66005 -16.97622 -170.76057 -16.88717 -169.9553 -16.90943 -170.2002 -16.90943 -170.1085 -16.99849 -171.04012 -18.13395 -182.55515 "/>
<path d="M-8676622.60432 4059147.94012l1.00188 20.60151 "/>
<path d="M-8676353.87907 4058288.70244l100.74414 -11.58083 "/>
<path d="M-8677302.65509 4059154.13405l84.26885 -9.96414 "/>
<path d="M-8678078.21798 4060045.0812l176.44139 78.8987 77.81232 35.00607 35.51092 13.86776 356.55633 158.33362 206.70916 94.99911 "/>
<path d="M-8676261.14994 4058822.35043l23.26577 -13.6001 52.09752 -47.53316 75.25198 -68.00105 9.57348 -21.00635 "/>
<path d="M-8676043.45354 4060409.66669l145.90646 -14.50026 "/>
<path d="M-8676652.61606 4060297.98595l87.78655 -9.20917 "/>
<path d="M-8675916.95007 4060705.20136l3.11695 48.87133 3.78486 49.6789 "/>
<path d="M-8677170.96413 4058149.05838l-13.80362 -145.30167 -6.01125 -66.12028 -7.68104 -75.42607 -1.73658 -16.03871 -5.52145 -10.89449 -14.02626 -8.20117 -8.90556 -5.21158 "/>
<path d="M-8677066.9806 4059210.71403l-0.20038 -13.86894 -7.28029 -73.72109 -7.25803 -73.57346 -9.618 -92.81581 -5.26541 -52.51472 -7.42501 -88.13102 -0.56773 -7.56758 -6.37861 -76.43019 -16.79811 -144.84983 -14.13758 -146.91196 -7.34709 -70.42685 -5.78861 -49.95889 "/>
<path d="M-8675882.29631 4059076.81748l-1.01301 -9.34481 -11.15421 -134.3022 -14.36021 -146.36886 -8.12632 -82.81302 -2.67167 -22.35289 -1.78111 -8.48334 -9.6848 -27.33524 -2.11507 -4.44367 -5.67729 -8.48337 -3.67354 -7.54078 -2.89431 -8.61804 -3.11695 -15.35089 -0.77924 -9.69531 1.00188 -28.68201 4.23014 -42.95582 11.57723 -145.83555 3.78486 -49.68955 7.45841 -97.89848 12.13382 -146.24332 12.13382 -145.16789 12.02251 -144.36175 14.13758 -171.02795 1.22451 -14.54423 3.79599 -25.34471 8.36009 -17.70901 12.79061 -19.66175 41.80047 -48.69664 "/>
<path d="M-8676127.05448 4060307.07393l9.99649 100.65401 "/>
<path d="M-8677269.92716 4059560.16527l90.29124 -8.98087 145.06043 -14.4071 88.36541 -8.77892 58.07538 -5.77632 11.13195 -1.1041 145.73948 -14.48793 144.09195 -14.31291 12.01137 -1.19835 145.51684 -14.46104 145.5725 -14.46106 145.03816 -14.42068 72.62484 -7.21708 20.9392 -2.07357 52.55393 -5.22431 72.35767 -7.19016 72.25748 -7.1767 73.08125 -7.27096 72.3688 -7.19017 74.13878 -7.36522 41.55557 -4.13368 29.7557 -2.94878 145.93985 -14.50156 72.53578 -7.21713 73.33728 -7.28446 144.61515 -14.36695 145.90646 -14.50162 144.14761 -14.11116 66.45774 -6.73243 246.78418 -24.61379 "/>
<path d="M-8677331.13062 4059235.40878l0.60113 6.50357 5.37673 31.06358 4.48618 20.99177 17.75546 73.49108 4.809 11.84901 3.69581 12.18562 3.65128 24.77514 8.24877 54.28968 10.13007 69.34284 2.44903 20.26419 4.34146 51.09791 9.23952 96.13615 1.89243 23.95312 3.77373 111.08044 "/>
<path d="M-8676225.5277 4058351.0502l4.89806 -0.40398 141.37575 11.58076 146.71909 11.98472 88.84409 7.17736 56.20521 4.53803 145.16062 11.58072 137.47957 11.17673 87.27448 6.73296 24.04501 -0.6733 34.06376 -3.09716 76.36517 -8.88752 68.79545 -4.84774 70.91052 -6.19434 74.13878 -7.54094 63.56343 -6.05968 42.96932 -3.77047 8.68292 1.07728 7.34709 2.42387 10.46403 6.329 "/>
<path d="M-8676600.22911 4059225.09462l144.03629 -15.52511 "/>
<path d="M-8677325.15276 4059272.97593l116.44019 -10.63728 "/>
<path d="M-8676083.48403 4059258.08373l17.07641 182.47518 "/>
<path d="M-8675424.13868 4059240.31002l46.86551 -4.57808 14.58285 -0.5386 5.56597 1.48114 4.89806 3.63554 3.33958 9.56011 9.96309 118.39654 16.47528 171.09583 "/>
<path d="M-8675362.69033 4059235.19334l1.44715 -4.71273 -3.11695 -43.62654 "/>
<path d="M-8677282.50626 4059470.55823l93.60856 -11.91624 "/>
<path d="M-8675153.85496 4059005.47895l-1.30244 -9.92387 -2.48242 -18.89174 -7.56973 -71.36609 -3.78486 -45.51295 -10.79799 -114.86041 -3.4509 -31.10542 -6.12257 -67.86668 -5.1207 -50.09233 -2.11507 -27.06611 -5.45466 -48.20746 -12.24514 -122.6741 -14.47153 -144.8945 -16.80924 -172.36761 "/>
<path d="M-8675224.35359 4059786.78509l145.30533 -13.94902 "/>
<path d="M-8675077.26715 4058313.21067l8.015 70.96584 9.90743 88.60568 6.79049 82.14143 "/>
<path d="M-8674903.9427 4060875.24037l4.67542 45.2356 0.44528 4.84666 -16.69792 13.73219 -5.56597 3.2311 -14.24889 6.86609 -16.03001 4.98128 -21.81862 3.63499 -8.79424 0.26926 -8.79424 -1.88481 -5.23202 -4.71202 "/>
<path d="M-8675003.68497 4060936.22761l-6.56785 -50.21684 "/>
<path d="M-8676270.94605 4061696.58845l3.78486 45.09771 0.44528 5.65403 6.23389 65.15574 0.33396 4.03857 6.56785 69.3285 4.5641 40.51996 3.11695 33.11587 4.23014 38.50044 3.56222 16.01938 5.00938 14.67319 5.34334 9.42314 13.24702 18.98087 5.45466 6.05772 10.01875 8.34618 8.68292 5.65386 9.35084 4.84617 16.5866 6.32694 12.80174 2.82693 17.25452 1.07692 19.81487 -1.88462 10.46403 -1.75 12.24514 -4.57693 12.46778 -6.8654 8.90556 -6.59617 11.13195 -10.63466 8.46028 -9.69235 7.90368 -10.63468 6.56785 -10.36545 1.89243 -3.63464 2.22639 -6.05774 4.67542 -18.03862 2.67167 -13.19244 1.33583 -19.38484 3.78486 -39.17363 6.56785 -24.50041 4.78674 -12.51946 5.34334 -14.26951 4.45278 -9.42327 5.1207 -8.48095 20.81674 -26.51984 43.52592 -52.63602 8.12632 -9.69259 7.79236 -6.73097 7.90368 -5.65402 10.46403 -5.65402 13.1357 -5.65402 8.68292 -2.82701 9.6848 -2.28854 9.35084 -1.48082 36.06752 -3.50011 "/>
<path d="M-8675661.95051 4061294.13398l32.65001 -3.29831 256.03483 -25.84805 146.60777 -15.07806 106.86671 -15.88583 183.78848 -12.78946 144.15874 -15.34737 "/>
<path d="M-8674861.41866 4058979.62569l-1.69206 -13.4114 -4.98711 -39.50717 -3.11695 -38.10691 -1.44715 -18.71687 -4.11882 -38.24176 "/>
<path d="M-8675248.47653 4060615.67069l68.12753 -5.51996 36.51279 -2.8273 39.07314 -4.4429 66.01246 -7.53947 46.53155 -4.98144 64.23135 -6.73167 "/>
<path d="M-8675489.51662 4060071.26863l-6.64577 -78.83175 "/>
<path d="M-8675496.1624 4059992.43688l143.60214 -19.79217 145.60589 -14.40657 144.82666 -15.21443 "/>
<path d="M-8674694.66206 4058961.71689l-1.29131 -11.84945 -8.17085 -74.86726 -3.56222 -28.54664 -2.33771 -31.91307 -1.44715 -12.92684 -3.22827 -39.9925 -2.56035 -21.14088 -7.56973 -71.36758 -2.00375 -18.58258 -2.00375 -28.41255 -2.44903 -24.91153 -7.01313 -71.36848 -5.78861 -47.26503 -1.55847 -21.41072 -1.00188 -11.71532 1.33583 -5.11704 3.56222 -6.59829 4.45278 -5.2517 18.47904 -19.39093 20.81674 -23.70007 4.34146 -7.40628 1.55847 -4.03979 0.89056 -4.17445 0.11132 -4.84775 -6.79049 -63.2903 "/>
<path d="M-8677211.64028 4059225.44471l2.9277 36.89394 1.92583 20.06271 6.24502 60.20138 2.6494 26.0544 "/>
<path d="M-8674847.05844 4059134.87901l89.94615 -6.86719 36.40147 2.55836 11.91119 2.15441 17.25452 4.17417 13.1357 4.71277 14.69417 7.13648 12.91306 7.40578 12.35646 8.21367 13.24702 10.63737 11.35459 10.09876 81.81983 81.59767 14.34908 19.95498 28.50892 26.22957 56.77294 64.49649 5.30994 6.28805 18.06715 20.37219 55.65975 72.17083 10.57535 13.5993 45.41835 58.97501 23.59973 38.37398 10.46403 17.09994 46.6206 63.08107 71.26674 110.54249 42.858 87.45033 21.31768 43.42197 -4.2524 21.58301 20.08204 11.90228 20.08204 37.18781 64.10889 178.74754 20.14883 48.60441 5.89993 16.82973 5.78861 14.27159 10.13007 18.17606 9.79612 13.46373 5.67729 5.38549 3.11695 3.09665 12.24514 7.53968 16.25265 5.78939 21.48466 5.38548 4.45278 0.80782 83.15566 14.67541 99.29699 18.71449 46.64287 8.21282 61.00308 10.77091 64.78794 11.44408 125.01179 22.48421 50.20509 8.88596 100.96678 16.69482 97.0706 16.02162 105.0856 17.90649 43.52592 7.2703 88.61031 15.07912 88.72163 14.54056 86.94052 14.94444 40.29766 7.13563 45.75231 7.00099 27.94119 4.03903 29.83362 4.98147 53.0994 6.46244 14.80549 2.55805 28.94307 5.1161 64.89926 10.23219 61.22572 11.30925 27.82987 6.09891 21.79636 6.35471 4.14109 1.68292 7.23577 3.09657 14.58285 8.34728 18.14508 12.19779 13.62551 10.07057 23.88916 21.42013 23.78898 19.88528 44.58346 45.45194 10.80912 9.85508 43.80422 46.95959 152.52997 150.14014 131.57964 126.28204 48.98058 46.71592 27.05064 25.71387 30.16758 29.88725 44.97307 41.06118 16.69792 14.27041 23.93369 19.25156 74.8067 57.21599 122.2288 81.98664 50.87301 35.27157 42.63536 29.88652 122.56276 83.19718 88.94427 59.90698 16.03001 12.2506 24.82425 18.30857 144.4927 102.04279 40.63161 27.05869 78.48024 51.69403 48.20134 36.2126 112.32137 80.0981 11.35459 8.07709 22.70918 14.67336 89.27823 60.17405 11.91119 9.28858 27.38459 18.03868 28.83175 19.78866 11.91119 7.00006 16.36397 8.48084 36.17883 14.67318 11.24327 3.90387 21.81862 6.19234 25.26952 5.25003 24.16746 3.55386 49.67076 7.32311 22.11918 3.25771 "/>
<path d="M-8674613.84411 4059185.10361l6.34521 -6.19391 4.34146 -3.2316 6.23389 -3.50091 6.67917 -2.55836 6.23389 -1.75045 20.59411 -3.23161 52.09752 -4.98206 163.08305 -16.15806 163.63965 -15.88878 48.64662 -2.55837 "/>
<path d="M-8677256.43524 4060246.85074l144.96024 -14.40622 48.89152 -4.86042 95.7125 -9.50543 144.30346 -14.33894 12.77948 -1.27906 146.22928 -14.52745 144.09195 -14.31205 12.01137 -1.19828 55.04749 -5.46632 90.46935 -8.99385 145.5725 -14.47365 145.02703 -14.40635 145.90646 -14.50062 144.83779 -14.39293 145.45005 -14.4468 145.62816 -14.47375 145.0159 -14.41991 147.05305 -14.60842 143.25705 -14.23145 146.04004 -14.51421 144.58175 -13.92181 72.02371 -7.53987 72.69163 -7.53987 110.98553 -11.04054 21.81862 -2.01961 146.83041 -15.34906 253.73052 -25.74338 "/>
<path d="M-8676635.45059 4061217.70707l17.90017 170.15248 6.52332 59.54402 "/>
<path d="M-8676606.35168 4061558.73645l20.48279 169.62235 15.80737 168.81211 "/>
<path d="M-8677288.62884 4059168.13769l71.91239 -8.21367 "/>
<path d="M-8675104.76307 4060602.88054l29.61098 289.18857 "/>
<path d="M-8675736.71268 4059063.64857l-0.91282 -10.30085 -5.77748 -65.23892 -7.12445 -68.80761 -13.80362 -147.44628 -13.6923 -147.04423 "/>
<path d="M-8675806.96641 4058627.9078l7.34709 -94.93339 4.23014 -44.84115 7.90368 -102.20617 11.46591 -147.45322 11.79987 -145.43519 6.34521 -78.91284 5.45466 -66.38955 3.33958 -41.34217 3.11695 -38.11034 5.23202 -64.50508 14.02626 -173.72113 8.90556 -109.48608 7.12445 -87.53576 "/>
<path d="M-8675377.71846 4059716.95904l145.27194 -14.67618 145.0493 -13.19512 69.07374 -7.36504 76.64347 -7.9844 53.65599 -5.78971 15.58473 -1.61573 14.02626 -1.61573 61.00308 -5.65507 57.86387 -5.38578 16.03001 -1.53495 20.83901 -1.83117 50.65037 -5.1165 112.54401 -11.71409 227.3144 -23.9668 48.86926 -5.25116 "/>
<path d="M-8677278.7548 4059905.55302l11.68855 -0.79439 121.56088 -12.45435 144.82666 -14.39321 145.91759 -14.50094 11.44364 -1.13099 145.96212 -14.50096 144.09195 -14.32594 12.01137 -1.18485 71.71202 -7.13605 73.79369 -7.32455 145.5725 -14.47409 67.13678 -6.66482 77.90138 -7.74197 "/>
<path d="M-8677273.17769 4060076.88309l2.13733 17.61083 14.60512 152.35681 15.7851 168.48411 6.90181 70.01024 9.90743 101.37945 17.25452 170.9832 "/>
<path d="M-8677329.03781 4061803.0726l216.38283 -21.82176 5.22088 -0.52502 145.19401 -14.67351 12.46778 -0.94234 28.38647 -3.50011 105.86484 -10.63495 144.27006 -14.80817 10.35271 -0.80772 19.36959 -2.28854 55.65975 -4.7117 72.58031 -7.80796 74.02746 -6.731 72.19069 -6.74447 12.01137 -1.11735 84.11301 -9.36957 61.34817 -5.60021 36.83562 -4.22708 36.17883 -3.36551 72.52465 -7.26951 145.0493 -14.2294 91.44896 -9.05998 53.21072 -5.25021 44.86175 -4.71173 16.25265 -2.15393 7.34709 -1.48083 10.79799 -2.96166 16.80924 -5.92333 14.80549 -6.86568 33.06189 -16.28917 13.91494 -5.25023 18.03376 -5.78872 18.47904 -4.57713 19.36959 -3.36554 23.26577 -2.15395 15.80737 -0.13462 55.88238 8.61578 20.92806 4.57713 21.37334 4.57713 41.07689 5.51948 44.63912 -5.25023 23.26577 -2.28856 120.89297 -11.98131 146.27381 -13.46216 145.60589 -15.34689 10.35271 -0.95582 54.51315 -4.90024 68.3947 -6.44839 10.34158 -1.02313 11.63289 -1.2116 62.1942 -6.4484 56.97332 -5.92338 14.47153 -1.49431 "/>
<path d="M-8675664.92274 4058613.49952l5.78861 -32.72167 4.23014 -35.54958 3.89618 -40.93602 8.68292 -106.78445 11.79987 -147.18374 "/>
<path d="M-8675590.67264 4059048.70224l-1.02414 -10.58363 -6.10031 -63.0711 -6.79049 -70.55818 -13.35834 -147.0425 -6.01125 -55.20876 -9.57348 -91.29703 "/>
<path d="M-8675755.14719 4060356.31049l145.45005 -14.44647 "/>
<path d="M-8676632.09988 4060504.4228l2.03715 25.08237 1.78111 17.77169 "/>
<path d="M-8675248.47653 4060615.67069l28.38647 290.13065 10.46403 125.74341 -14.91681 1.48091 -23.48841 0.67314 "/>
<path d="M-8677200.54172 4059342.60274l-46.27551 4.76655 "/>
<path d="M-8675458.64773 4058889.81209l-6.56785 -71.09733 -7.12445 -75.40674 -10.90931 -103.68509 -3.67354 -41.74362 -4.34146 -41.3398 -1.89243 -21.27592 -5.89993 -57.49904 -5.78861 -69.08002 "/>
<path d="M-8675827.56052 4061652.83678l3.89618 41.46313 5.67729 43.6169 1.33583 6.73099 2.11507 6.8656 5.34334 10.50033 6.90181 9.96184 17.58848 20.73137 6.45653 8.34638 7.01313 10.6349 9.79612 17.9043 5.67729 14.80805 5.45466 21.40433 2.22639 14.53876 0.5566 14.40413 -0.44528 14.40411 -1.55847 14.67333 -3.11695 14.94254 -3.4509 11.84633 -17.58848 48.3275 -3.67354 12.9232 -4.34146 11.17317 -2.78299 9.28853 "/>
<path d="M-8675791.93828 4059229.26876l7.56973 89.27232 6.90181 64.6311 2.24865 28.45103 11.221 107.00379 5.68843 64.05099 "/>
<path d="M-8675299.57217 4059019.21347l-0.96848 -9.74881 -6.9352 -70.10015 -5.78861 -64.49898 -7.01313 -69.34691 -7.12445 -76.34942 -7.12445 -75.94597 -7.79236 -71.7721 -6.79049 -60.99991 -0.44528 -5.65564 -4.78674 -56.55653 -5.1207 -46.59202 -12.02251 -112.57573 0.11132 -8.07964 0.77924 -4.30914 3.78486 -10.36888 "/>
<path d="M-8677384.9202 4060431.4911l144.27006 -16.15625 146.18476 -12.84423 "/>
<path d="M-8676949.90589 4060388.83855l141.5316 -14.06945 15.07266 -1.49446 146.71909 -14.58109 144.09195 -14.31183 12.01137 -1.19826 145.50571 -14.45995 145.5725 -14.45997 48.43511 -4.81999 23.91143 -2.36961 72.69163 -7.23 145.90646 -14.5004 144.82666 -14.39271 145.45005 -14.44658 86.10563 -8.56294 59.27763 -5.88366 145.13835 -14.43315 146.17362 -14.51396 69.85298 -6.94732 74.18331 -7.37816 145.86193 -14.08315 144.93798 -14.27166 105.53088 -10.36716 103.83882 -10.97305 "/>
<path d="M-8677320.66659 4059293.9677l113.87984 -11.56634 "/>
<path d="M-8676225.5277 4058351.0502l-7.34709 -2.0199 -4.67542 -2.28922 -4.89806 -5.25174 -2.67167 -5.52107 -4.23014 -20.73769 -3.78486 -38.10897 -6.90181 -70.02388 -14.58285 -145.83958 -12.80174 -125.91103 -1.89243 -18.98777 -5.78861 -63.83147 -8.79424 -83.89719 -16.5866 -170.35495 -8.5716 -81.34034 -5.67729 -64.64175 -14.13758 -145.84929 -13.80362 -145.58182 -4.57523 -51.94394 "/>
<path d="M-8676173.05169 4059105.4578l-0.8349 -9.64102 -11.5661 -134.50384 -17.25452 -145.96453 "/>
<path d="M-8677159.27559 4058910.14477l-8.27104 -85.61293 -1.75885 -13.81555 "/>
<path d="M-8675019.93761 4060789.8846l108.20255 1.21168 "/>
<path d="M-8675647.22294 4059214.59195l18.51243 182.47588 16.44189 171.09539 "/>
<path d="M-8676026.26581 4059091.2521l-1.21338 -9.43905 -13.70343 -134.77332 -2.33771 -22.21776 -7.34709 -83.88925 -4.34146 -40.80029 -7.79236 -76.08015 -6.45653 -63.15364 "/>
<path d="M-8676983.24608 4058498.97325l74.91802 -7.15036 77.05535 -7.35235 "/>
<path d="M-8674819.67385 4059428.22523l57.09577 -6.39574 6.47879 -0.63284 81.58605 -7.87687 112.22118 -11.35078 50.16056 -4.16061 43.55932 -4.53762 19.14695 -1.07718 6.31182 -0.956 5.6439 -1.62924 10.38611 -5.93796 "/>
<path d="M-8674808.34153 4059540.60124l56.88426 -5.52048 15.30643 -1.37339 72.43559 -6.46301 65.81208 -6.11293 47.1772 -4.38946 111.76477 -11.04099 12.37873 -1.35993 65.99019 -7.25744 9.1282 -2.15434 4.45278 -2.15434 4.23014 -2.96222 "/>
<path d="M-8677266.47626 4059732.55078l12.02251 -1.19833 84.79206 -8.41523 7.13558 -0.71361 144.94911 -14.40689 146.22928 -14.52809 11.35459 -1.13101 145.72835 -14.48771 144.09195 -14.31269 12.01137 -1.19834 145.51684 -14.46082 145.5725 -14.46084 67.13678 -6.66492 77.89025 -7.74208 146.24042 -14.54166 144.50383 -14.35318 72.99219 -7.25738 72.45786 -7.20353 73.58218 -7.31125 31.45889 -3.12378 41.33293 -4.10669 70.85486 -7.04197 74.76217 -7.43245 71.41145 -7.09584 73.25936 -7.27088 143.99176 -14.31288 147.34248 -14.64951 144.05855 -14.31291 "/>
<path d="M-8675663.47559 4061623.4894l-21.92994 -49.67531 -3.78486 -39.44424 150.61527 -15.0777 "/>
<path d="M-8675346.10372 4061531.0043l101.52338 -10.50054 "/>
<path d="M-8675444.73279 4061599.12295l3.11695 -70.27261 -15.91869 -74.17712 "/>
<path d="M-8675471.11551 4061754.47503l-26.49404 -116.98503 "/>
<path d="M-8675521.54324 4061585.93004l38.96182 -64.75317 "/>
<path d="M-8676420.89341 4058075.93646l146.27381 -14.67831 27.94119 -2.82793 45.75231 -3.36659 145.49457 12.65836 146.27381 12.65835 47.53342 4.17456 97.40455 8.48378 151.53922 16.84634 "/>
<path d="M-8676716.44665 4058103.32694l17.48829 -0.80798 32.49416 -10.55758 "/>
<path d="M-8677397.83326 4058173.02827l76.9663 -7.51415 8.10406 -0.88877 141.79877 -15.56696 39.85238 -2.82791 75.3633 -8.6184 36.95807 -3.50123 151.17187 -14.27424 "/>
<path d="M-8676900.61362 4058564.63243l-7.71444 -72.80953 -7.79236 -73.61795 "/>
<path d="M-8675025.50359 4061752.32111l-8.68292 -60.44437 -11.24327 -84.94575 "/>
<path d="M-8675385.9561 4059631.86385l144.71534 -16.42668 "/>
<path d="M-8675942.99883 4060925.188l96.95928 -9.15481 94.84421 -9.02018 "/>
<path d="M-8675994.98503 4060466.76549l18.70167 169.10015 "/>
<path d="M-8676764.63686 4059170.76337l-1.44715 -15.79449 -3.13921 -34.2282 -1.55847 -16.97949 -6.73483 -73.29081 -0.93508 -10.17969 -1.15772 -11.51276 -11.62175 -110.4692 -1.20225 -14.7311 -0.71244 -8.7121 -17.1432 -171.68488 -5.89993 -62.07651 -8.23764 -83.89135 -6.45653 -70.02215 -8.12632 -76.62088 -14.24889 -144.89434 -4.40825 -45.11153 "/>
<path d="M-8676901.23701 4059340.75806l-3.67354 11.1758 0.33396 16.42706 6.23389 58.70634 10.208 95.1548 16.78698 171.06658 16.5866 170.1215 15.97435 170.30745 4.34146 43.00394 11.87779 127.01821 14.19324 171.02937 16.8983 153.38973 9.90743 15.34828 "/>
<path d="M-8676666.4642 4061829.18866l3.56222 -17.9043 1.89243 -17.90433 0.77924 -39.03962 -0.66792 -18.98138 -1.00188 -18.71217 -14.36021 -152.12167 -5.8888 -81.43305 -10.80912 -87.74749 -16.62 -170.27353 -16.66453 -170.2357 -14.80549 -170.57483 -13.24702 -124.80263 -1.89243 -21.94494 -1.44715 -4.98137 -8.23764 -20.19478 "/>
<path d="M-8674476.92114 4060483.19093l-25.49216 -23.29182 -14.83889 -14.51366 -62.41684 -61.01681 -14.80549 -17.21994 -36.98033 -23.76329 "/>
<path d="M-8674996.00392 4060951.44071l-2.67167 -2.96184 -2.89431 -4.98128 -2.11507 -7.26998 "/>
<path d="M-8675003.68497 4060936.22761l-104.19504 9.69331 "/>
<path d="M-8675019.61479 4060982.53999l23.61086 -31.09929 "/>
<path d="M-8674954.92703 4060925.05337l55.65975 -4.5774 13.24702 -0.53852 "/>
<path d="M-8674512.43206 4060319.2047l-10.24139 1.07709 -63.09589 4.81999 -31.73719 2.42346 -58.08651 7.06842 "/>
<path d="M-8675953.01759 4060208.93676l27.60723 -3.9045 9.00575 0.30967 "/>
<path d="M-8676062.45578 4060218.37487l54.78032 -5.39898 "/>
<path d="M-8677331.13062 4059235.40878l-8.28217 -14.00356 -3.02789 -6.57091 -8.30443 -54.9103 -5.89993 -38.77938 -5.89993 -43.22301 "/>
<path d="M-8676781.56856 4060543.50711l4.67542 -16.69462 -2.33771 -17.63709 -14.07078 -135.90076 -16.48642 -170.81397 -17.09867 -169.92792 -16.43076 -170.25361 -16.67566 -170.12152 -17.00962 -171.03967 -7.42501 -81.66316 -7.12445 -78.63417 -2.11507 -10.6372 -7.56973 -9.42537 "/>
<path d="M-8677211.64028 4059225.44471l-1.01301 -14.51524 -4.06316 -51.00546 -1.42489 -13.39772 -3.22827 -33.83774 -4.58636 -48.36673 "/>
<path d="M-8678277.56893 4058649.84336l35.57771 -206.76688 62.1942 -254.93913 29.2325 -115.94453 8.36009 -32.35964 10.82025 -46.05508 7.38048 -31.84814 7.89255 -45.8938 3.75147 -35.69979 "/>
<path d="M-8677568.38585 4059240.76783l-324.73009 30.98279 "/>
<path d="M-8677247.49628 4060229.63059l2.60488 39.35453 -157.66179 14.01573 12.73495 -40.4989 142.32197 -12.87136 "/>
<path d="M-8677997.51135 4058644.59175l2.44903 3.29908 1.00188 6.22113 6.4454 4.47059 5.14296 6.19419 2.4045 8.87385 1.01301 11.0014 -0.8015 4.72643 -5.83314 16.40109 -4.77561 1.42735 -7.85916 -0.0404 -12.81287 -2.16796 -5.3322 -2.53153 -9.51782 -7.87737 -6.62351 -8.53719 -3.75147 -2.49114 -8.605 -0.8618 -10.05215 1.07725 -9.60687 7.99857 -1.73658 7.48687 1.64753 8.90075 -1.55847 11.60732 -5.72182 5.669 -11.03176 -0.22891 -6.34521 -6.75971 -17.23226 2.0737 -8.05953 4.76681 -2.44903 3.12401 -2.9611 8.69874 -4.65315 3.79728 -0.94622 3.64916 1.03527 9.70865 -2.20413 23.02602 -5.55484 4.53787 -13.11344 3.93192 -6.05578 -6.00561 -32.42737 -11.32448 -14.54946 -9.97794 -11.72194 -13.46552 8.18198 -52.56956 7.46954 -26.09635 "/>
<path d="M-8677785.893 4057743.44795l0.77924 17.23739 1.89243 23.9707 2.56035 23.97065 1.55847 9.56131 -0.44528 4.71332 -3.56222 23.83591 -5.34334 47.94099 -0.33396 33.66631 -0.5566 14.40915 -0.33396 4.84793 -4.45278 28.5489 -2.78299 33.66607 -0.5566 23.97018 0.22264 9.69579 0.22264 4.84789 1.78111 9.42645 -1.78111 23.97008 -1.00188 24.10469 -1.55847 24.10464 -0.66792 43.22662 1.11319 9.69567 1.33583 4.57851 2.89431 18.98732 4.23014 23.70044 5.23202 23.56573 2.22639 14.27407 1.55847 19.25651 0 9.56091 -1.11319 14.40868 0.5566 4.71312 6.67917 28.14399 5.1207 18.58308 4.34146 18.85237 6.34521 23.2961 4.34146 23.70002 0.5566 4.71307 1.66979 24.10394 -0.22264 19.25618 -1.66979 28.81689 -4.89806 69.61806 "/>
<path d="M-8678667.98865 4060285.00694l1.66979 5.78939 5.1207 21.5419 0.77924 11.71339 -0.66792 25.17701 -3.00563 19.92615 -4.34146 17.77194 -6.67917 20.06072 -13.24702 30.96614 -10.24139 31.10069 -2.22639 16.29081 0.77924 7.4049 6.56785 19.25273 19.14695 32.44683 7.34709 9.69364 16.92056 17.63702 18.47904 14.80969 16.92056 10.36677 31.61474 15.48282 39.74106 17.0984 7.45841 5.11605 5.78861 5.92385 7.45841 10.36672 5.1207 19.25246 -2.22639 19.92559 -2.89431 10.36668 -8.12632 18.44458 -11.79987 17.09824 -19.03563 33.25398 -33.17321 48.73642 -7.34709 12.65528 -2.22639 8.07783 0 7.40467 4.45278 12.65525 5.89993 8.75096 10.24139 8.88558 7.45841 1.48093 8.79424 0 11.79987 -2.15408 42.63536 -13.32838 13.24702 -5.92373 27.27328 -14.80934 12.46778 -4.44281 22.15258 -6.73153 33.06189 -7.40468 25.82612 0 11.02063 6.73153 5.1207 8.07783 3.00563 15.61712 -0.77924 9.55875 -11.79987 21.40618 -16.14133 23.69484 -27.94119 33.25347 -20.59411 27.46433 -4.45278 8.07773 -7.34709 19.92505 -3.67354 37.83057 0 19.92495 2.22639 38.36889 -3.00563 25.98307 -21.26202 62.8707 -9.57348 16.96291 -8.12632 22.88643 -3.67354 16.28972 0 10.36618 2.22639 17.77057 4.45278 9.5584 12.46778 18.57827 10.35271 11.03925 21.92994 17.9051 25.93744 17.5012 9.57348 11.84695 6.56785 13.3278 5.23202 7.40433 17.58848 14.80864 27.27328 19.25121 5.89993 5.92344 10.35271 12.51999 9.57348 14.80857 9.57348 16.96253 5.1207 11.84683 10.35271 34.05956 12.46778 25.03977 3.00563 11.84675 5.1207 49.54084 -0.77924 11.84669 0.77924 11.84668 5.1207 17.76999 7.34709 14.80831 0.77924 8.07725 -2.89431 16.96221 1.44715 11.1735 5.89993 16.28906 17.6998 24.36624 10.24139 10.36573 12.5791 10.36572 17.58848 11.03881 33.17321 17.76977 "/>
<path d="M-8677759.95556 4058574.98758l108.98178 186.90286 82.8217 136.13552 89.27823 195.24591 33.72981 110.68274 36.06752 159.15504 13.91494 254.48184 -38.96182 251.11008 -209.058 615.83571 -58.44273 329.44626 -17.36584 280.70166 -90.05747 352.04526 -80.03871 230.60728 -56.32766 185.50555 -79.14816 224.00266 -30.53494 145.45128 -41.26614 226.08184 -76.81045 365.05982 -28.05251 195.44755 -41.96745 158.15929 -32.06001 228.82231 8.12632 306.88385 16.5866 104.58089 30.8355 373.22613 116.99678 498.51298 18.35658 100.77664 2.19299 64.31731 -12.0559 125.72658 -6.82388 167.83514 -53.28864 335.08416 -31.43662 152.75547 -36.54619 273.36943 -29.96721 290.91038 -38.56107 557.20082 "/>
<path d="M-8679555.65027 4058043.48256l6.79049 24.91275 20.03751 49.15202 24.71293 41.47606 28.83175 32.45357 37.84863 30.29889 108.98178 53.32585 73.91614 24.23894 58.55405 11.44615 131.357 -2.69321 105.0856 -20.60308 73.91614 -24.1043 169.31695 -73.7945 129.79853 -41.20662 87.16316 -8.07975 53.54468 0.67331 90.05747 20.60334 81.70851 51.84485 44.08252 37.97452 47.75606 48.07394 77.81232 98.70581 115.10435 105.57252 46.19759 26.66229 72.46899 28.27812 110.65157 16.29355 "/>
<path d="M-8673870.11859 4059394.88653l-6.90181 -6.59773 -1.22451 -4.57802 -14.47153 -19.12 -11.57723 -26.12174 -7.23577 -12.38765 -3.4509 -3.23156 -5.45466 -7.67497 -4.23014 -8.61751 -3.56222 -8.75217 -2.33771 -4.17411 -5.56597 -7.54034 -14.91681 -24.50613 -6.45653 -12.79168 -5.67729 -18.17768 -2.67167 -4.03949 -6.45653 -6.86713 -3.89618 -2.82764 -6.34521 -7.13644 -9.79612 -16.42729 -4.23014 -8.48295 -2.89431 -8.75226 -10.46403 -16.02339 -5.00938 -13.3304 -2.33771 -4.30882 -2.44903 -4.03952 -3.67354 -3.23162 -3.89618 -2.82766 -3.33958 -3.36627 -2.22639 -4.30883 -7.45841 -12.25323 -5.78861 -7.54046 -7.79236 -11.98395 -4.11882 -8.34838 -3.78486 -8.61769 -8.79424 -16.56213 -2.67167 -3.9049 -3.33958 -3.50094 -2.67167 -4.03955 -4.34146 -8.61771 -3.67354 -3.09699 -2.67167 -3.9049 -1.55847 -4.57817 -0.89056 -9.56029 -1.22451 -4.57817 -5.00938 -8.07913 -4.45278 -8.48309 -5.78861 -13.19594 -5.78861 -7.67519 -15.36209 -24.23749 -6.79049 -7.00195 -11.91119 -14.94649 -5.89993 -13.06136 -1.44715 -4.57821 -1.66979 -9.29108 -3.67354 -13.73466 -32.17133 -80.38849 -1.44715 -4.57826 -1.55847 -9.29117 -3.33958 -14.0041 -6.56785 -22.7567 -10.79799 -31.50935 -2.67167 -9.15658 -4.89806 -13.46557 -4.0075 -8.75263 -4.34146 -8.48333 -21.48466 -36.76115 -8.46028 -11.58046 -6.90181 -6.73283 -4.0075 -2.55848 -6.23389 -7.27146 -0.77924 -4.84765 -5.34334 -13.06172 -6.90181 -12.25379 -7.56973 -5.92492 -3.56222 -3.36643 -4.0075 -2.55849 -8.5716 -4.17438 -20.81674 -11.31122 -8.015 -5.11699 -8.46028 -4.4437 -29.27703 -16.02426 -4.34146 -2.01987 -27.38459 -19.25608 -8.015 -4.84769 -36.06752 -32.18333 -11.02063 -9.15678 -18.92431 -14.81245 -9.90743 -10.36873 -8.12632 -5.38636 -3.78486 -2.9625 -5.23202 -16.15909 -6.79049 -17.64036 -2.11507 -4.3091 -6.01125 -7.40627 -12.91306 -14.13926 -3.33958 -3.50115 -18.14508 -15.62054 -16.14133 -17.77512 -4.5641 -8.34893 -2.89431 -9.1569 -3.67354 -13.73536 2.00375 -18.98715 1.62526 -19.55275 "/>
<path d="M-8676781.56856 4060543.50711l-36.40147 3.23121 -32.61661 0.67317 -23.26577 -1.07707 -14.91681 -1.21171 -20.59411 -2.55805 -13.6923 -2.42341 -32.39397 -7.53951 -35.51092 -11.30927 -34.19735 -15.80607 -28.7093 -13.09994 "/>
<path d="M-8678078.18459 4060030.47276l-172.72332 -83.34251 "/>
<path d="M-8678286.05147 4058752.53191l8.48255 -102.68855 "/>
<path d="M-8677975.63707 4059130.82603l24.43463 -59.71776 "/>
<path d="M-8677879.59062 4059277.56746l-1.3581 -22.82303 -6.45653 -108.68942 20.17109 -5.80344 19.23601 -5.54761 8.96122 -0.56553 25.64801 -1.62927 28.14157 -1.80432 24.46802 -1.54848 28.03025 -1.79086 6.57898 -0.41742 9.52895 -0.64632 9.6514 -0.64632 25.60348 -1.72353 8.36009 -0.56553 13.73683 2.97578 7.75897 94.36289 -1.23565 16.75041 -1.65866 22.55377 "/>
<path d="M-8677652.76602 4059237.45545l-21.41787 1.62926 -29.2325 2.20825 -23.97822 1.81777 -28.63137 2.16786 -23.33257 1.77737 -29.77796 2.24864 -25.12481 1.89856 -25.06915 1.89856 -21.61825 1.64272 "/>
<path d="M-8677859.33047 4059253.10171l-7.90368 -112.85014 "/>
<path d="M-8677834.26132 4059251.20315l-4.77561 -117.06472 "/>
<path d="M-8677809.13651 4059249.3046l-4.2524 -116.79544 "/>
<path d="M-8677778.66837 4059269.77128l-0.69018 -22.71533 -5.8888 -116.35111 "/>
<path d="M-8677756.02598 4059245.27858l-4.75334 -116.12223 "/>
<path d="M-8677727.39461 4059243.11073l-5.35447 -115.74523 "/>
<path d="M-8677703.41639 4059241.29296l-3.57336 -115.63752 "/>
<path d="M-8677674.18389 4059239.08471l-7.20237 -115.1528 "/>
<path d="M-8677975.63707 4059130.82603l-3.43977 10.30078 -4.92032 14.04405 -1.34697 8.49644 0.30056 6.12659 "/>
<path d="M-8677968.32338 4059124.40318l4.47504 -1.03681 5.97786 0 7.15784 2.97578 19.71468 12.54945 12.53457 5.37256 5.97786 2.38332 18.51243 -17.31608 25.67027 -13.12846 17.92244 -11.35108 40.00822 -1.79086 1.19112 6.57097 "/>
<path d="M-8677631.2257 4059090.52499l-63.29626 2.97579 -16.83151 1.07721 -4.15222 4.21458 "/>
<path d="M-8677773.02447 4059091.73685l-1.20225 -30.76784 "/>
<path d="M-8676764.63686 4059170.76337l-10.38611 1.15799 -57.20709 6.35549 -82.47661 8.98116 "/>
<path d="M-8678735.06977 4059602.90172l94.3544 76.43779 62.10514 51.36666 130.13248 100.21481 105.76465 77.36528 47.86738 27.73612 78.48024 45.50863 138.14749 63.55021 "/>
<path d="M-8678367.21451 4059525.27853l27.47365 -194.67295 17.06528 -136.88436 22.03013 -139.63291 "/>
<path d="M-8678250.90791 4059947.13026l-32.70567 -15.77994 -51.35168 -35.82809 -119.43468 -95.55559 -156.45954 -140.93149 -87.51938 -75.50887 -127.68346 -116.46884 -66.65811 -48.08246 -60.90289 -40.59624 -30.95795 -22.13612 "/>
<path d="M-8677331.13062 4059235.40878l4.63089 0.83483 114.85945 -10.79889 46.28664 -4.71274 98.37303 -10.01794 77.38931 -8.50987 74.88462 -14.94615 "/>
<path d="M-8674858.41303 4060524.92761l16.5866 171.2534 21.37334 215.54404 3.11695 32.0418 9.16159 92.35527 16.33057 169.76479 17.1432 169.89688 16.69792 171.77904 0.99074 9.97549 6.12257 61.91246 1.26904 12.80247 4.86466 49.25773 10.16347 106.5516 2.74959 28.74116 13.46966 134.07959 7.68104 79.55852 3.11695 30.8271 6.56785 66.50009 7.01313 73.23041 5.23202 49.94179 7.90368 68.11433 8.68292 65.42168 5.78861 38.63361 9.23952 64.88264 4.67542 19.51856 9.1282 48.99817 13.80362 71.88155 11.68855 56.53573 21.1507 87.22601 10.57535 43.61275 6.45653 24.49845 8.79424 33.65163 "/>
<path d="M-8674631.45485 4060343.38541l-44.13818 -8.79176 -53.57807 5.07579 -145.71721 13.86754 "/>
<path d="M-8677053.86716 4060492.38648l-1024.31743 -461.91372 "/>
<path d="M-8677018.79039 4058134.11085l2.89431 -22.62334 -2.11507 -36.62836 -8.90556 -86.3195 -14.47153 -146.78506 -16.80924 -169.68051 -15.79624 -187.54031 -1.73658 -20.55071 "/>
<path d="M-8677075.71918 4060605.12891l-10.74233 -122.66501 "/>
<path d="M-8676765.87251 4060712.33686l-15.69605 -168.82974 "/>
<path d="M-8676765.87251 4060712.33686l-3.33958 22.21425 0 6.86621 1.44715 10.50126 13.6923 133.55366 16.25265 170.30556 16.78698 170.42417 4.14109 37.97789 13.00212 132.25524 7.39161 82.84721 9.10593 85.51212 12.91306 131.12092 3.22827 40.2514 5.23202 45.36679 -0.44528 47.65512 "/>
<path d="M-8676901.23701 4059340.75806l-10.46403 -114.85554 -1.8479 -23.80608 -1.15772 -14.83843 "/>
<path d="M-8677126.88162 4060514.83004l6.79049 12.38635 5.78861 16.42536 3.00563 12.25168 4.11882 21.54139 3.89618 20.06038 9.01688 43.35185 6.90181 37.02396 5.34334 25.58012 9.47329 40.75306 17.29905 72.13538 "/>
<path d="M-8674713.47506 4060510.79101l23.02087 -2.31571 "/>
<path d="M-8674874.88832 4060353.53699l16.47528 171.39062 "/>
<path d="M-8674874.88832 4060353.53699l-145.38325 16.42561 -75.58593 8.34743 -69.01808 6.19325 -145.27194 14.40603 -146.05117 14.40601 -144.92685 14.78297 -145.48344 14.16363 -144.82666 14.41942 -103.54939 10.08416 -42.37933 4.13329 -145.03816 14.35206 -145.56137 14.62131 "/>
<path d="M-8676953.77981 4060600.86104l15.69605 17.50231 51.09565 66.23928 6.56785 6.86625 7.23577 6.59698 10.13007 7.27013 "/>
<path d="M-8676898.3427 4062391.47707l-4.89806 -17.23035 -2.44903 -18.71112 -3.00563 -62.99881 -1.33583 -19.24971 -4.67542 -30.82652 -30.2789 -307.05825 -17.25452 -169.35002 -15.56246 -166.40433 -1.79224 -19.1028 -6.46766 -63.67622 -7.02426 -84.7182 -2.02601 -17.55491 -3.64015 -31.67698 -1.59187 -15.96642 -11.39912 -114.44461 "/>
<path d="M-8677030.36762 4060396.21659l11.13195 -1.34636 9.57348 1.21172 6.23389 1.75026 9.01688 4.30834 6.79049 5.38542 7.45841 8.21277 3.78486 5.65469 2.44903 4.84687 2.22639 7.80885 0.89056 13.86742 -1.00188 7.40493 -1.66979 6.32784 -2.44903 5.7893 -4.34146 7.00101 -5.45466 6.46247 -2.78299 2.55806 -5.00938 3.5005 -5.34334 2.96196 -5.56597 2.15415 -49.43699 0.30966 "/>
<path d="M-8676328.2088 4060670.45277l17.03188 -1.65598 145.60589 -14.19027 145.03816 -14.32492 44.2495 -4.41596 101.66809 -10.00323 144.82666 -14.40574 145.43891 -14.52693 144.84892 -14.24422 145.27194 -14.40579 146.05117 -14.27118 145.60589 -15.34827 144.15874 -13.73268 144.93798 -14.1366 "/>
<path d="M-8674690.45418 4060508.4753l137.61315 -13.84042 9.27291 -0.92898 "/>
<path d="M-8676863.05442 4060705.33599l9.57348 4.98138 15.47341 4.84675 9.6848 1.61558 20.03751 -0.4039 42.41273 -4.03896 "/>
<path d="M-8676327.96389 4060499.87216l-145.46118 14.97135 -12.01137 1.18478 -144.62628 13.47689 -151.50583 14.00194 "/>
<path d="M-8674908.15058 4060013.49464l3.53996 32.12512 7.90368 88.72734 5.1207 50.35481 16.69792 168.83509 "/>
<path d="M-8674906.39173 4058538.22607l-9.35084 2.28918 -63.22947 6.73289 -10.46403 1.07726 -63.11815 6.59822 "/>
<path d="M-8675022.38664 4058846.04959l13.46966 134.14165 1.89243 18.82441 "/>
<path d="M-8675052.55422 4058554.92362l6.01125 43.09035 3.11695 28.41261 7.68104 73.25303 5.23202 70.4248 8.12632 75.94518 "/>
<path d="M-8674876.78075 4058831.64158l-7.01313 -76.07993 -7.34709 -70.29023 -8.34896 -71.7719 -4.67542 -39.85851 -1.22451 -14.00437 -1.00188 -21.41057 "/>
<path d="M-8674906.39173 4058538.22607l-0.66792 -15.88963 -7.79236 -70.83032 -3.00563 -28.5477 -1.89243 -9.83012 -3.11695 -10.50343 -1.78111 -4.17444 -5.1207 -7.67559 -6.45653 -6.59832 "/>
<path d="M-8676928.28764 4059035.23706l-1.24678 -12.52263 -4.38599 -44.0313 -2.86091 -28.6541 -6.08918 -61.02486 -18.2564 -171.01139 -9.23952 -87.79582 -5.34334 -57.76787 -7.53633 -73.45584 -7.15784 -73.32166 -14.24889 -143.27821 -1.13546 -9.62825 "/>
<path d="M-8677362.54498 4059077.92162l-7.90368 -70.55754 -3.67354 -37.83734 -12.26741 -125.9548 -8.3267 -85.45185 -8.44915 -86.26043 -5.57711 -57.01358 -6.56785 -64.50083 -3.78486 -37.56954 0.81263 -16.28017 3.7626 -12.42897 7.78123 -11.93074 16.82038 -22.42067 "/>
<path d="M-8675022.38664 4058846.04959l145.60589 -14.408 "/>
<path d="M-8676928.28764 4059035.23706l138.359 -13.80183 11.47704 -1.14454 9.27291 -0.9291 90.43595 -9.04862 34.96545 -3.48749 10.70894 -1.07722 11.57723 -1.48117 145.71721 -14.54245 88.16504 -8.75241 57.1069 -5.65541 145.0493 -14.00388 144.27006 -14.2732 146.71909 -13.86926 143.9361 -13.86928 145.93985 -14.81187 85.15941 -8.48317 3.89618 0 56.88426 -6.19406 145.38325 -14.94656 48.20134 -4.44358 25.1582 -3.90496 70.91052 -6.7327 74.2501 -6.59805 72.35767 -7.13667 "/>
<path d="M-8674876.78075 4058831.64158l166.7566 -17.10111 46.53155 -4.03964 103.08185 -12.65753 12.80174 -1.07724 142.60027 -15.4853 "/>
<path d="M-8675841.03018 4060966.78842l15.64039 170.41204 16.8649 170.26139 4.11882 41.93558 12.35646 127.75784 17.6998 170.4313 "/>
<path d="M-8677725.93632 4059118.12845l-47.08814 -26.39161 "/>
<path d="M-8677716.64115 4059126.30176l-9.29518 -8.17331 "/>
<path d="M-8677225.18786 4060426.18646l171.20938 77.18619 "/>
<path d="M-8677055.24752 4060816.33957l-0.8349 -8.81832 -6.01125 -64.21909 -13.62551 -138.17325 "/>
<path d="M-8676849.5291 4061410.90715l145.63929 -14.47205 10.93157 -1.09045 75.40782 -7.48509 70.39845 -7.00045 72.78068 -7.22931 73.43747 -7.29663 12.01137 -1.19816 72.81408 -7.22932 72.69163 -7.22933 72.52465 -7.20241 73.04785 -7.26972 72.10163 -7.16203 72.93653 -7.24281 70.66561 -7.02741 73.61558 -7.31013 "/>
<path d="M-8676845.58839 4061458.63115l4.90919 43.42933 6.34521 55.73362 0.44528 8.6158 2.22639 7.67344 2.56035 3.23092 "/>
<path d="M-8676993.08672 4061432.15075l13.70343 -8.76399 15.82963 -6.11191 28.05251 -7.55239 20.1377 -2.88095 24.10067 3.59445 27.96346 8.61591 "/>
<path d="M-8676170.31323 4057848.35324l-14.02626 8.48395 -103.08185 78.50994 -141.82103 77.29742 -74.13878 39.18716 -62.45023 32.04988 -82.0536 38.94453 -64.01984 27.3365 -88.25409 32.31893 -59.44461 18.82573 -147.83228 52.92196 -81.15191 28.4404 -69.79732 24.89876 -139.02691 45.82488 -41.42198 11.12291 -39.90804 9.21073 -196.37871 18.09825 "/>
<path d="M-8676863.29933 4061419.05188l-25.84839 -11.64495 -18.71281 -10.81029 -26.18234 -19.91088 -22.94295 -22.93997 -19.14695 -25.37672 -15.37322 -27.39615 -13.80362 -30.29066 -2.83865 -8.89874 -3.59562 -9.2757 "/>
<path d="M-8676863.29933 4061419.05188l34.52017 14.18932 132.28095 46.04111 14.34908 3.80983 65.05511 22.21274 83.96829 22.49541 74.16104 11.09287 20.79448 2.61167 54.9473 2.57128 12.20062 -0.28271 64.69889 -4.32137 80.36154 -12.76219 39.64087 -11.42944 57.86387 -20.87996 44.19384 -18.13369 140.24029 -66.01926 139.61691 -60.85007 86.94052 -38.63727 54.59108 -25.91532 37.8041 -16.35697 242.64309 -104.75248 141.40915 -63.26122 59.86762 -27.289 143.62441 -64.66186 156.96048 -70.81479 60.11253 -25.98348 140.93048 -62.8722 400.86149 -175.96323 164.08493 -73.24028 156.84916 -79.56856 84.15754 -46.17964 29.7557 -18.8085 206.6869 -115.96174 428.3574 -246.11801 69.35204 -33.3906 82.15378 -37.29526 59.86762 -25.93172 36.52392 -13.9353 80.04985 -25.02972 80.70663 -27.06286 76.69913 -23.02368 101.323 -25.5146 "/>
<path d="M-8678716.12319 4055654.79571l91.30425 566.37939 174.14821 950.91926 27.55157 89.27505 35.33281 79.69918 179.12419 235.00022 39.4405 96.96142 29.57759 146.24857 21.36221 317.17516 "/>
<path d="M-8677639.67485 4058516.66733l-6.07804 2.42384 42.57971 96.68404 94.17629 -9.17014 -0.50094 -6.11343 -82.09812 8.06595 -3.206 -6.75978 -13.12457 -20.6968 -31.74832 -64.43369 "/>
<path d="M-8678244.13969 4058670.31112l-0.11132 3.24521 0.85716 25.82703 -4.01863 45.80983 -1.10206 46.46946 -2.84978 27.06558 -5.87767 28.5871 1.83677 18.68998 -4.93145 16.4143 -1.39149 17.96279 -5.9222 17.50494 -1.55847 11.71483 0.86829 10.93383 2.62714 8.51007 5.399 11.23005 3.88505 4.01265 9.13933 -0.60594 4.09656 -1.81781 2.84978 -4.45701 2.04828 -8.11957 0.61226 -8.09264 -1.26904 -38.28191 2.21526 -8.61782 6.42313 -15.04081 3.7626 -49.3507 -0.16698 -12.96722 -5.57711 -29.92026 1.51395 -7.98503 2.39337 -5.08996 13.70343 -10.04527 8.36009 1.49467 24.9133 16.41444 22.03013 8.6987 6.22276 4.16083 5.07617 6.15372 0.95735 9.96444 3.55109 -15.09478 6.32295 -4.99569 17.68867 -1.4812 4.2858 1.19843 3.22827 2.58537 13.414 16.85876 -1.05754 -7.55412 -3.99637 -7.02897 -4.19674 -3.16439 -14.13758 -6.58462 5.13183 -6.046 2.9611 -9.52011 0.53433 -29.11246 1.19112 -5.91137 2.76072 -3.89154 8.64952 -3.2048 4.67542 0.3501 4.12995 2.26221 7.92595 7.231 16.10793 -1.9525 5.81088 -5.99217 7.51407 -25.86735 4.65315 -11.67467 6.00012 -3.52799 3.53996 1.65627 4.59749 7.93123 8.37123 7.79657 14.59399 6.1807 2.52695 4.17433 3.85165 -0.25585 9.4065 -3.97234 7.69218 1.30616 5.23202 4.41671 7.99274 -5.57475 5.30994 -1.83132 4.46391 -1.06378 8.98348 0.09426 15.87416 6.23456 16.14133 8.60449 4.5641 3.97234 8.91669 14.93329 11.0095 8.80646 3.50656 4.3359 2.21526 4.53788 0.13358 8.29475 4.90919 7.76959 7.59199 17.88216 11.16534 0.71367 15.50681 -1.97942 5.63277 2.39685 17.08754 12.79219 -2.72733 7.89076 13.35834 15.09476 12.38986 7.52717 12.82401 0.90218 11.12082 -1.25228 5.03164 1.95249 4.64202 3.89151 10.29705 12.50936 10.24139 10.09905 15.45115 9.74894 7.70331 6.88081 15.48454 21.94853 6.42313 6.84039 8.50481 17.26254 21.35108 23.64507 18.14508 27.07866 -0.01113 8.22727 -7.22463 4.43006 -14.90568 3.00275 -4.79787 3.68947 -11.78873 0.16158 -46.08627 -5.14372 -32.01549 -1.26573 -12.49005 3.08354 -17.22113 -0.10772 -34.82074 -6.09975 -44.48327 14.24622 -8.09293 1.65622 -8.27104 3.87798 -30.98021 8.44269 -3.77373 -0.22891 -4.2858 -2.19483 -8.8499 1.64276 -0.84603 -12.6977 -5.87767 12.63037 -10.19687 0.12119 -3.81826 4.24154 -17.6664 6.70567 -24.96896 11.90323 -0.69018 15.05406 -3.95184 2.7065 -5.22088 0.63286 3.33958 5.65537 0.82376 15.26947 4.94259 18.0702 4.37486 8.18679 "/>
<path d="M-8677893.11594 4059271.75062l-177.43214 15.37691 -3.69581 -0.80789 -5.42126 -1.37342 -5.79975 -1.61579 -5.6439 -1.91202 -6.1671 -2.22171 -6.6903 -2.84109 -5.93333 -3.15079 -5.47692 -3.47395 -4.94259 -3.78364 -4.5641 -4.05294 -4.10769 -4.3357 -3.7292 -4.605 -3.57336 -4.84738 -3.12808 -5.08975 -2.9611 -5.30519 -2.81638 -5.50716 -3.68468 -7.98472 -3.53996 -8.25403 -3.38411 -8.44254 -3.16147 -8.55027 -3.08355 -8.55027 -3.00563 -8.46949 -3.00563 -8.28099 -2.86091 -7.99823 -2.87204 -7.63468 -2.87204 -7.1634 -2.94997 -6.62481 -3.62902 -7.14995 -3.99637 -6.96144 -4.61976 -6.85373 -5.06504 -6.79987 -5.73295 -6.78641 -6.50106 -6.88067 -7.18011 -7.02879 -7.78123 -7.2577 -4.26354 -3.70291 -4.48618 -3.81063 -9.51782 -7.85018 -10.4863 -8.2676 -5.02051 -3.5548 -4.79787 -2.82768 -4.74221 -2.19482 -4.43052 -1.61582 -4.37486 -1.13107 -4.21901 -0.68672 -4.15222 -0.33663 -4.07429 -0.0404 -4.0075 0.16158 28.97646 -380.68014 19.5811 -1.6832 "/>
<path d="M-8678012.77326 4059106.73698l3.01676 0.13465 34.39772 -3.36628 9.59574 -0.16158 8.21538 1.81779 7.64765 12.29363 9.88517 7.72896 14.92794 9.85644 7.09105 0.47128 3.78486 -0.40395 14.81662 -8.7523 14.26003 -6.54403 15.20624 -9.34477 12.43439 -5.00902 4.11882 -3.51439 4.39712 -1.31958 69.61921 -6.81335 63.39645 -3.13737 25.87065 -3.68944 51.28489 -0.35009 4.34146 -3.39321 12.91306 -0.08079 9.57348 1.91205 4.20788 2.15442 9.56234 9.34479 5.65503 7.98481 14.62738 38.37549 5.37673 6.34204 1.92583 9.89681 9.15046 20.42645 8.56047 26.20289 1.48055 10.08527 -2.60488 3.77019 2.91657 17.1005 -16.64226 2.15439 "/>
<path d="M-8678194.61364 4058666.32529l197.10229 -21.73354 "/>
<path d="M-8677493.34538 4061085.05933l21.97447 9.30276 18.72394 41.74789 29.90042 28.79667 32.6834 5.54661 15.50681 6.65055 25.40311 -4.38882 7.82576 57.55268 9.97423 17.17824 13.29155 91.3835 -28.1193 7.66013 -44.43874 7.29664 0.30056 97.70993 -5.89993 5.92342 -26.49404 4.44256 -96.2023 8.15816 "/>
<path d="M-8675183.24331 4058713.81846l-52.65412 5.79019 -17.03188 1.75052 -74.47274 7.81002 "/>
<path d="M-8676593.2939 4059308.56362l-12.01137 1.17144 "/>
<path d="M-8676593.2939 4059308.56362l145.50571 -14.44781 145.69495 -13.27638 144.93798 -15.37692 73.67124 -7.37878 73.13691 -7.40571 72.69163 -7.00177 71.24447 -7.01524 74.47274 -7.39226 39.07314 -4.03949 31.94869 -2.58527 50.42773 -5.89766 23.26577 -2.1544 72.35767 -6.86714 113.6572 -11.57989 32.39397 -2.55835 64.45399 -6.7325 79.70476 -8.21366 145.27194 -14.13828 146.49645 -14.6769 145.82853 -14.94622 "/>
<path d="M-8677197.89232 4059368.65715l145.16062 -14.54198 78.13515 -6.0861 73.35954 -7.271 101.18942 -11.84905 50.52792 -5.99186 144.2144 -13.18209 "/>
<path d="M-8674351.68671 4063655.14449l-18.2564 -75.50919 -14.47153 -56.66587 -52.32016 -208.36056 -42.73555 -167.31038 -34.63149 -135.5461 -16.92056 -74.70584 -13.35834 -66.89916 -5.1207 -28.67119 -4.23014 -26.51755 -7.01313 -55.32362 -4.89806 -45.63209 -3.33958 -37.28654 -3.56222 -56.9396 -1.22451 -21.53751 -1.33583 -50.61332 -0.11132 -25.17213 2.33771 -108.9004 0.33396 -19.2495 4.78674 -127.07444 2.11507 -78.21072 0.33396 -46.44208 0.11132 -11.71151 -0.44528 -32.17306 -2.22639 -58.28867 -0.89056 -7.53851 -2.11507 -50.21199 -3.33958 -49.26989 -8.23764 -93.42491 -4.0075 -38.23174 -6.12257 -69.01939 -1.22451 -13.77162 -8.79424 -84.40707 -2.89431 -33.78993 -6.00012 -56.60845 -1.23565 -11.64482 -16.5866 -170.16378 -33.08415 -340.68525 -13.55871 -136.43313 -3.56222 -36.35014 -7.56973 -76.47029 -9.1282 -91.14573 -17.25452 -170.44582 "/>
<path d="M-8676605.30527 4059309.73506l18.13395 182.58206 16.99849 171.0401 16.90943 170.09502 16.90943 170.20018 9.10593 91.63587 7.78123 78.33287 16.97622 170.76055 17.05415 171.64656 16.74245 168.43972 12.25628 123.33598 4.63089 46.59564 16.8649 169.71366 17.08754 171.95938 16.92056 170.26051 16.84264 169.46368 0.86829 8.27926 16.15246 162.99926 16.72019 168.27395 "/>
<path d="M-8676593.2939 4059308.56362l-6.9352 -83.469 -1.33583 -19.12026 -0.85716 -33.42014 -0.14472 -5.89768 "/>
<path d="M-8677197.89232 4059368.65715l3.85165 38.53617 5.14296 51.44868 0.82376 8.24038 8.43802 84.30202 17.10981 171.03921 17.02075 170.08068 17.02075 170.1993 17.00962 169.94093 17.00962 170.0461 8.00387 79.97329 "/>
<path d="M-8677340.28108 4058753.27251l-13.91494 -143.27407 "/>
<path d="M-8677225.95596 4059064.32183l80.59531 -8.21375 63.64135 -6.55754 153.43165 -14.31349 "/>
<path d="M-8677095.89027 4057459.05413l-23.46615 2.03353 -15.82963 2.82808 -13.58098 2.84155 -14.1821 5.07708 -12.86853 6.54498 -12.51231 8.98251 -10.87591 9.76359 -8.50481 10.62547 -8.09293 11.25841 -5.73295 11.4604 -4.79787 15.10994 -2.30431 19.1096 -1.13546 18.77289 1.97035 27.20313 7.23577 77.32656 2.97223 54.21716 1.49168 14.62485 0.40075 12.3759 -2.33771 17.18349 -4.63089 19.99799 -5.97786 15.47317 -9.54008 18.42233 -6.51219 10.18075 -47.84512 66.45745 -6.91294 11.76973 -8.0818 13.2241 -6.91294 15.40565 -8.00387 20.67101 -5.8888 20.46898 -4.73108 20.02455 -1.41376 10.94817 0 10.30178 2.49356 24.89929 3.99637 33.93513 6.32295 55.10397 0.81263 11.83681 0.32283 12.34852 15.5402 156.12613 6.25616 2.93559 "/>
<path d="M-8677315.1674 4059969.13058l-7.83689 -2.1004 6.14484 -39.50368 -2.33771 -27.2245 -4.68655 -9.37106 19.0245 -69.07141 0 -57.37133 3.21713 -5.56077 0.87942 -80.78626 2.9277 -7.02843 -4.02977 -121.67873 -16.48642 -163.60926 -27.77421 -138.52642 -6.60125 -30.74049 -5.42126 -27.38779 1.15772 -16.49464 -13.91494 -93.98626 -20.22675 -13.38435 -44.92855 -138.22063 -12.01137 -23.1469 -20.20449 -43.34503 -18.81299 -39.29209 -0.89056 -6.01905 -43.39234 -93.51793 -9.49555 -85.9914 26.24914 -2.7066 0.35622 -11.3381 -0.48981 -11.971 9.0948 -8.84696 -12.0893 -101.62612 1.95922 -11.95766 -3.5177 -9.74927 -1.68092 -6.6252 -2.47129 -14.5566 -58.62084 5.31902 -4.02977 4.55146 -25.9931 2.59891 -5.32107 -4.80731 -21.9856 -73.38921 -13.28042 -45.89206 -7.20237 -66.96666 11.48817 -0.60597 -4.96485 -51.53484 -11.27666 1.26582 -3.7292 -41.82593 172.09993 -16.64423 -6.66804 -68.61059 6.45653 -14.59748 -27.60723 -268.91207 1.03527 -15.24424 -3.87392 -32.40082 -2.39337 -6.26201 -5.07617 -5.37321 -61.90477 -42.20474 0.94622 -4.52483 62.77306 -242.0003 26.26027 -100.68011 38.01561 -10.76027 12.99098 -48.44156 41.34406 -52.15874 41.19934 -31.83675 21.31768 -32.36206 13.92607 -39.23054 35.16583 -20.78026 17.78885 4.33652 6.54559 4.65973 "/>
<path d="M-8676914.70667 4059187.25801l-74.29463 2.7334 -78.17968 6.85369 -99.29699 9.614 -46.17532 4.47037 -126.7595 10.47575 "/>
<path d="M-8674949.20521 4059846.01437l3.33958 32.81227 1.65866 16.22433 "/>
<path d="M-8674945.86562 4059878.82664l24.89104 -2.76016 "/>
<path d="M-8677378.01839 4058382.88378l-177.38761 16.46886 "/>
<path d="M-8674682.11636 4061564.28287l-0.89056 -13.66413 -1.16885 -10.71592 "/>
<path d="M-8674642.40869 4061559.94804l-39.70766 4.33482 -48.44624 4.6983 5.76635 55.86791 7.79236 75.4549 1.8479 17.91794 0.42301 4.07899 2.17073 20.97377 2.46016 23.77382 1.78111 18.17361 93.308 -6.63673 -2.25979 -20.91986 -2.37111 -21.95647 -1.14659 -10.70228 -1.29131 -11.88695 -2.44903 -22.72389 -5.10956 -47.373 "/>
<path d="M-8674624.53078 4061690.39592l-16.59774 1.77699 -25.81499 2.77318 -8.42689 0.90196 -25.18047 2.67894 -16.45302 1.77699 "/>
<path d="M-8674900.68104 4061571.76784l10.65328 -1.05005 54.16806 -5.51949 68.6062 -6.66378 10.24139 -0.9962 11.82213 -1.02313 62.18307 -5.89644 60.23498 -5.30411 11.27666 -1.18467 "/>
<path d="M-8674719.66442 4061815.08061l-2.50469 -28.36423 -23.02087 -230.20119 -1.17999 -10.16396 "/>
<path d="M-8674597.19072 4061802.80336l-6.28955 -68.88476 -19.29167 -188.60396 -1.03527 -11.6852 "/>
<path d="M-8676716.86967 4059159.27769l-0.99074 -9.21009 -6.67917 -62.8685 28.66477 -3.28549 22.99861 -9.0755 9.55121 -3.77024 25.38084 -2.10056 10.23026 -0.8483 "/>
<path d="M-8676678.74274 4059010.31297l0.91282 10.04505 2.51582 27.63057 2.4379 26.84952 "/>
<path d="M-8676782.91552 4058873.85563l0.70131 8.73903 1.54734 14.65031 10.49743 109.9306 0.99074 12.18602 1.05754 10.15276 12.93532 124.35039 1.29131 12.38784 0.34509 9.82947 0.75697 10.79894 "/>
<path d="M-8676788.88225 4059031.97848l11.36572 -1.5081 9.39537 -0.95603 90.29124 -9.15634 34.99885 -3.55481 10.72007 -1.09068 "/>
<path d="M-8676658.81655 4058861.58866l0.82376 7.98498 12.92419 125.36204 1.29131 11.8898 0.94622 9.97773 2.66054 28.46542 2.22639 23.69869 6.80162 72.29415 0.70131 7.62122 1.6364 19.94173 0.02226 6.07273 "/>
<path d="M-8676916.29854 4059169.48419l82.49887 -8.06556 57.19595 -5.45334 10.51969 -0.99641 10.89818 -1.10413 37.32543 -3.79714 86.71788 -8.80615 8.605 -0.87523 16.69792 -2.18134 8.67179 -0.87523 132.65944 -13.37082 89.92388 -7.70203 55.62635 -5.87078 53.6226 -5.45337 91.44896 -9.11588 146.40739 -14.00373 144.16987 -14.34038 15.64039 -1.83126 81.36342 -8.6581 41.21048 -3.2855 7.46954 -0.35009 90.16879 -8.90048 55.75993 -6.32864 280.50285 -27.41515 10.65328 -1.2388 145.38325 -13.90958 146.24042 -15.36384 145.80627 -13.97694 167.15735 -16.34685 163.20551 -16.80469 132.13624 -12.52274 9.32857 0.25584 7.69218 0.33663 165.85491 -17.61266 38.40522 -3.58178 "/>
<path d="M-8676604.90452 4059146.18967l-17.6998 1.75046 "/>
<path d="M-8676622.60432 4059147.94012l-7.83689 0.94255 -86.42845 10.39502 -7.59199 0.91562 -22.70918 3.23161 -6.7237 2.82766 -10.74233 4.51079 "/>
<path d="M-8676621.60245 4059168.54164l0.79037 5.58799 1.3247 9.35819 7.12445 37.16337 1.55847 12.65706 2.56035 20.46671 2.93883 55.96011 "/>
<path d="M-8676621.60245 4059168.54164l19.03563 -1.8851 "/>
<path d="M-8676602.56681 4059166.65653l-2.33771 -20.46687 "/>
<path d="M-8676602.56681 4059166.65653l7.002 -0.88869 133.33849 -16.92556 145.62816 -13.97673 144.94911 -15.28286 146.27381 -13.92291 144.4927 -14.58272 145.38325 -15.18867 146.38513 -13.58633 141.48707 -14.27307 294.44005 -29.75807 116.88547 -10.36822 29.27703 -8.88705 "/>
<path d="M-8676629.55066 4059044.44724l-10.61988 0.82138 -35.14356 2.71997 "/>
<path d="M-8674831.80767 4061612.07353l-0.7681 -8.84462 -1.9147 -22.23948 -0.5566 -6.43492 "/>
<path d="M-8674834.49047 4061580.98943l-39.41823 3.90403 "/>
<path d="M-8674832.57578 4061603.2289l-39.54068 4.06557 "/>
<path d="M-8674878.5396 4061704.77336l-0.89056 -10.31191 -0.87942 -9.57151 1.33583 -2.10008 -11.05403 -112.07208 -1.22451 -10.78321 "/>
<path d="M-8674768.34443 4061548.58595l1.09093 9.94856 5.9222 61.67013 1.24678 12.96401 3.58449 37.46497 1.14659 11.90045 "/>
<path d="M-8674756.50004 4061670.63363l-59.43348 5.84253 -63.04023 6.3137 "/>
<path d="M-8674835.32537 4061571.41782l41.80047 -3.19054 10.84252 -0.83466 "/>
<path d="M-8674814.68674 4061687.83813l-1.24678 -11.36197 -4.5641 -41.51704 -0.75697 -6.83875 "/>
<path d="M-8674794.82734 4061668.27777l-4.02977 -37.33036 "/>
<path d="M-8674750.88954 4061619.45077l-10.44177 0.75388 -16.14133 1.19813 -8.70518 4.02517 -7.31369 0.75388 -5.3656 4.76559 "/>
<path d="M-8674798.85711 4061630.94741l6.56785 3.28475 7.45841 -0.44425 8.47141 -0.80773 16.27491 0.18847 10.46403 -0.91542 "/>
<path d="M-8674798.85711 4061630.94741l-17.62188 1.19813 -4.77561 -4.02517 -5.23202 -3.28476 -11.48817 1.03658 "/>
<path d="M-8674782.68238 4061567.39263l5.20975 54.01014 1.11319 11.57742 3.2394 33.54751 "/>
<path d="M-8674793.5249 4061568.22729l5.3322 53.91591 -25.36971 2.31548 -1.94809 -0.44425 -3.58449 -1.79046 -4.85353 -43.07885 "/>
<path d="M-8674835.32537 4061571.41782l-0.53433 -6.21953 -0.87942 -10.16395 "/>
<path d="M-8674755.35345 4061682.53409l10.59762 -1.02312 "/>
<path d="M-8674879.43015 4061694.46145l64.74342 -6.62332 59.33329 -5.30404 "/>
<path d="M-8674900.68104 4061571.76784l8.98348 105.03141 "/>
<path d="M-8674891.69756 4061676.79926l1.81451 18.57762 13.99286 146.06208 -8.46028 -2.69237 -17.92244 1.07695 "/>
<path d="M-8674837.97477 4061625.8722l-4.71995 -0.29617 1.05754 11.2274 0.14472 1.42698 "/>
<path d="M-8674844.64281 4061637.07267l3.00563 -0.26924 15.66265 -1.37313 5.47692 -0.47117 "/>
<path d="M-8676770.7817 4059103.76119l-10.88705 1.10414 -41.43311 4.21458 -15.42888 1.57542 "/>
<path d="M-8676832.23006 4059178.27685l-1.5696 -16.85822 -4.73108 -50.76331 -0.85716 -9.26399 "/>
<path d="M-8676769.22322 4059120.74068l-10.78686 0.8483 -9.21725 0.71365 -7.75897 0.70018 -25.09141 2.12748 -1.02414 -16.05039 "/>
<path d="M-8676789.92865 4059021.43523l1.0464 10.54325 7.2135 72.88685 1.65866 16.72365 3.40638 34.37631 1.58074 15.95607 "/>
<path d="M-8676622.54866 4058993.57569l-11.59949 1.11761 -10.92044 0.24237 -125.10084 12.23989 -9.43989 1.60236 "/>
<path d="M-8676791.23109 4058898.30873l10.56422 -1.06376 24.96896 -2.51802 -1.73658 -14.74457 -1.00188 -8.55051 "/>
<path d="M-8676792.43334 4058883.57763l10.21913 -0.98297 24.77972 -2.61228 99.4417 -10.40874 11.45478 -1.19842 "/>
<path d="M-8677091.3373 4058956.73474l10.92044 -0.84831 2.6828 -0.18851 44.47214 -3.40672 21.35108 -4.1877 14.02626 -0.59247 5.52145 4.02612 14.03739 4.03959 16.8649 -1.34653 6.7237 -1.939 17.95583 -2.26217 "/>
<path d="M-8676953.93566 4058962.04006l-12.44552 1.14455 -4.47504 5.68234 -11.57723 3.05662 -6.64577 6.19402 "/>
<path d="M-8676992.36314 4058951.53714l2.39337 19.3496 0.89056 7.23084 3.7292 3.28552 12.10043 0.9695 21.23976 -1.46771 18.08942 -2.22177 "/>
<path d="M-8676261.14994 4058822.35043l2.56035 -55.07379 5.00938 -54.9394 4.23014 -54.13173 10.68667 -131.964 1.78111 -27.87423 11.35459 -147.31709 12.24514 -148.3963 12.35646 -147.59026 12.13382 -145.30288 4.45278 -52.92357 8.46028 -100.46119 5.78861 -70.0271 0.77924 -25.99094 -1.89243 -44.03659 -3.11695 -32.32054 -14.47153 -146.52095 -14.13758 -145.44547 -28.94307 -298.57307 -0.33396 -16.29582 1.33583 -11.17814 1.78111 -8.6193 2.67167 -8.75398 3.4509 -6.19513 24.08954 -46.8272 5.20975 -9.49475 41.52217 -79.24447 22.8205 -40.83455 26.13782 -38.54515 7.34709 -12.52518 2.11507 -7.27269 0.77924 -7.00334 8.47141 -146.26301 "/>
<path d="M-8677015.81816 4058163.48072l-2.97223 -29.36987 "/>
<path d="M-8677005.78827 4058272.74513l-10.02989 -109.26441 "/>
<path d="M-8676862.57575 4058172.90707l-5.04277 -53.07047 -14.58285 -146.37936 -8.34896 -84.83895 -5.89993 -60.86897 -11.35459 -113.38953 -5.45466 -57.0992 -7.34709 -75.41447 -7.01313 -70.56685 -8.90556 -93.05734 -5.67729 -53.32988 -15.58473 -149.21726 "/>
<path d="M-8676857.66656 4058220.5639l-4.90919 -47.65683 "/>
<path d="M-8676710.88068 4058164.81388l-0.25603 -6.97551 "/>
<path d="M-8676711.13671 4058157.83837l-0.7681 -7.67575 -2.89431 -28.89859 "/>
<path d="M-8676714.79912 4058121.26403l-1.64753 -17.93709 "/>
<path d="M-8676798.9344 4057351.95009l14.80549 144.78481 14.58285 145.98151 3.35072 35.63321 2.10394 22.40873 10.57535 112.58167 15.13945 146.1121 12.27854 122.47685 9.6514 21.39796 "/>
<path d="M-8677297.41194 4058353.39328l-1.33583 -16.46893 "/>
<path d="M-8677298.74778 4058336.92435l4.71995 -4.57845 -10.4529 -105.99156 -8.28217 -61.729 0.36735 -23.06766 -7.31369 -64.34192 -4.47504 -35.53769 -0.60113 -11.94468 2.07054 -12.26788 3.60675 -20.87293 6.56785 -22.98721 9.55121 -19.86303 9.4065 -16.56377 17.62188 -25.0881 36.12317 -48.96438 7.91482 -11.94486 3.88505 -6.26197 8.2933 -17.84326 6.77936 -16.49663 5.07617 -20.01145 2.6828 -16.26775 0.60113 -14.78643 -1.79224 -14.03231 -5.49918 -58.33798 -0.32283 -24.21331 -5.67729 -58.23067 -1.6364 -19.55394 -0.60113 -18.35541 3.43977 -19.10959 7.31369 -16.4297 11.78873 -16.56439 14.03739 -15.97187 14.03739 -9.70972 12.69042 -6.72005 17.00962 -5.66962 15.52907 -2.69341 10.01875 -0.63295 19.14695 -1.19857 19.39186 -8.10716 "/>
<path d="M-8677225.95596 4059064.32183l-13.6923 -146.36717 "/>
<path d="M-8674589.39835 4058271.57358l1.62526 -23.79462 "/>
<path d="M-8674587.77309 4058247.77897l-1.44715 -11.71553 -3.10581 -18.96034 -3.68468 -15.05518 -3.65128 -18.77187 -3.79599 -13.99139 -8.82764 -48.50542 -2.11507 -9.29173 -17.6998 -59.6558 -6.34521 -23.02749 -4.0075 -13.73572 -3.00563 -9.02249 -7.68104 -27.60618 -31.28078 -94.80416 -4.67542 -13.60123 -3.78486 -8.61861 -2.89431 -9.15728 -1.89243 -4.30931 -5.78861 -18.04526 -5.56597 -13.1973 -4.11882 -8.61865 -7.56973 -12.25465 -25.26952 -28.54936 -7.68104 -5.92535 -8.12632 -4.98268 -11.79987 -8.21469 -12.5791 -6.86803 -12.80174 -6.06003 -9.1282 -2.69335 -13.35834 -4.98269 -8.5716 -4.04002 -25.93744 -10.90807 -8.34896 -4.30936 -4.45278 -1.07734 -3.89618 -2.82802 -8.68292 -3.23203 -4.67542 -1.07734 -4.78674 0.404 -9.57348 -1.34668 -7.79236 -5.38671 -10.68667 -9.56142 -20.48279 -20.20021 -26.2714 -28.14568 -15.25077 -18.71894 -20.14883 -20.60433 -7.01313 -6.32944 -12.69042 -14.67894 -2.78299 -3.90541 -4.78674 -8.21483 -5.34334 -13.33228 -4.34146 -18.71908 -2.89431 -14.00566 -7.45841 -22.75924 -1.11319 -9.56159 -1.78111 -19.1232 0 -19.12323 0.89056 -23.83675 0.66792 -9.56165 3.22827 -23.4328 0.66792 -9.427 2.00375 -14.14052 3.22827 -2.96278 0.5566 -3.77081 -1.44715 -4.84819 "/>
<path d="M-8677319.19717 4059900.302l32.9951 -2.57166 7.44727 7.82268 "/>
<path d="M-8677887.40525 4059146.05502l-36.57958 11.68766 -32.4051 7.75586 -28.65364 4.29534 "/>
<path d="M-8675007.02455 4058999.01564l145.60589 -19.38995 166.7566 -17.9088 163.19437 -16.02369 141.26443 -13.73461 21.1507 -2.42376 163.97361 -18.7168 7.40275 -0.86178 "/>
<path d="M-8675183.24331 4058713.81846l69.35204 -6.73279 78.14628 -7.40607 144.60402 -14.40819 166.31132 -16.15874 163.41701 -16.15876 140.59652 -13.73496 10.35271 -1.07725 77.7678 -14.16588 32.04888 -5.84411 "/>
<path d="M-8677060.62426 4059272.07378l-68.3613 6.38236 3.98524 42.60286 68.47262 -6.3958 "/>
<path d="M-8677042.05616 4060947.02487l-4.0075 -33.41501 -9.18386 -97.27029 "/>
<path d="M-8677058.53145 4060892.09603l-30.29003 -70.81551 -23.15445 -41.19706 -24.50142 -36.08121 -26.28253 -30.27869 -52.44261 -54.36451 -66.06812 -70.89775 "/>
<path d="M-8677020.97225 4061168.87813l-7.34709 -84.81504 -13.73683 -137.03822 "/>
<path d="M-8676990.58203 4061615.02173l18.43451 120.3373 -3.78486 4.44245 -89.05559 11.84653 -22.8205 4.44245 -11.69968 12.93693 "/>
<path d="M-8676995.3799 4061576.3719l4.79787 38.64983 "/>
<path d="M-8677006.42279 4061461.84864l4.0409 52.47595 7.002 62.04732 "/>
<path d="M-8677300.75153 4061092.74656l97.79417 -9.41046 18.05602 -3.87727 19.55883 -4.4831 32.9951 -5.81592 "/>
<path d="M-8677301.94265 4061085.27474l169.59524 -16.11493 22.5422 -1.19819 13.88154 1.0501 9.56234 3.28492 9.85177 4.46964 7.91482 5.82938 15.97435 11.49719 9.25065 12.23763 11.04289 18.06697 5.53258 15.07822 5.82201 29.40248 "/>
<path d="M-8677011.74387 4061252.50783l-9.22839 -83.6297 "/>
<path d="M-8677042.05616 4060947.02487l-9.79612 -32.66109 -6.67917 -22.26775 "/>
<path d="M-8677699.20851 4059095.83024l-0.06679 -13.37087 5.44352 -0.51168 26.12668 -5.15715 "/>
<path d="M-8676913.54894 4059202.09644l14.91681 -1.48115 5.07617 -0.60592 120.91523 -11.0413 9.70706 -1.0772 10.14121 -1.00988 124.00991 -11.98386 7.97048 -0.76751 18.38998 -1.57541 7.40275 -0.60593 126.00253 -12.84564 7.74784 -0.64632 145.55023 -14.73077 145.0159 -14.63653 146.26268 -13.86904 144.48157 -14.85201 145.51684 -13.80175 146.16249 -14.39423 148.62265 -15.78116 276.8961 -26.86303 10.55309 -0.94256 146.58551 -14.62321 133.82829 -13.69413 11.73307 -4.59164 11.55496 -3.77027 147.18663 -17.92225 7.56973 -0.9695 163.22777 -16.93931 162.40401 -16.34686 164.36323 -15.2158 31.43662 -2.77386 "/>
<path d="M-8676772.64073 4059188.96807l-2.38224 -17.04671 "/>
<path d="M-8676595.01935 4059171.94829l-0.54547 -6.18045 -1.61413 -20.15717 0.01113 -8.28101 "/>
<path d="M-8675821.20418 4059691.57866l-17.56622 2.18123 -12.87967 2.1947 5.72182 57.77561 3.19487 43.58397 "/>
<path d="M-8675888.8419 4059776.61954l-4.29693 2.10043 -2.97223 3.51418 -1.3247 3.85079 0.22264 5.5069 1.65866 3.9585 3.74033 3.74307 4.50844 2.20814 5.6105 0 5.83314 -2.31586 2.61601 -3.56804 1.5696 -8.42865 -1.65866 -5.93776 -3.40638 -3.08333 -5.83314 -1.87154 -6.26729 0.32314 "/>
<path d="M-8675873.24604 4059795.61767l5.19862 2.24854 11.10969 0.32314 14.20437 -0.87518 31.71492 -3.27182 "/>
<path d="M-8675681.21992 4059622.04824l12.04477 -1.6292 77.81232 -6.27446 5.94446 -1.31952 5.0539 -3.85085 2.31545 -5.39927 0.22264 -7.7017 -1.43602 -15.18799 -1.54734 -15.64581 "/>
<path d="M-8675967.3778 4059466.04757l99.46397 -9.66764 10.43064 86.10635 -12.42326 16.1171 -88.10938 8.59039 -9.36197 -101.1462 "/>
<path d="M-8675868.37024 4059544.51943l11.42138 -139.93828 -10.6978 -100.95914 -5.07617 -51.66482 -18.31206 -199.94252 -29.36608 -282.05839 9.25065 -114.18804 -25.73707 -122.36292 10.87591 -144.47532 14.68304 -177.09217 -4.35259 -150.45847 26.63875 -111.47495 148.27756 -17.7623 -6.34521 -147.91699 15.0504 -178.90618 13.04664 -186.16777 96.62532 -140.66482 115.10435 -222.9664 109.85007 -215.34802 142.94536 -272.94165 75.40782 -147.55769 159.33159 -299.44458 72.50238 -145.03137 "/>
<path d="M-8675806.89962 4058468.52698l-6.89068 80.67369 -68.16092 -5.99227 9.78498 -149.90197 23.02087 1.44086 "/>
<path d="M-8675856.74849 4058492.45579l-3.4509 23.39013 2.18186 6.88102 7.42501 3.98588 6.89068 -0.17506 5.07617 -3.08367 1.99262 -6.34239 -0.36735 -7.97176 -5.25428 -7.25808 -8.33783 -6.88104 -6.15597 -2.54504 "/>
<path d="M-8677011.74387 4061252.50783l145.40552 -11.86052 73.37068 -7.29672 71.93465 -7.14863 11.45478 -1.13086 74.12765 -7.36404 72.45786 -7.20249 72.1239 -7.17557 73.01445 -7.25635 12.01137 -1.18471 71.96805 -7.14866 73.53766 -7.31021 72.71389 -7.22944 72.85861 -7.24291 70.7324 -7.02751 74.30576 -7.37754 71.06636 -7.06791 73.27049 -7.28331 71.89013 -7.13523 74.50614 -7.40449 289.99841 -28.8237 145.95098 -14.49938 61.89364 -6.15248 31.16946 -3.09644 196.60135 -19.5345 145.20514 -14.43213 145.77287 -14.486 "/>
<path d="M-8677000.34475 4061366.95244l-22.7871 2.88096 -138.24768 11.61806 -11.46591 -64.47163 -11.33232 -11.47004 -24.82425 -10.31227 -26.71668 0.57889 -55.03636 14.51257 -5.37673 9.15449 -9.29518 21.63418 -15.23964 9.73335 -46.91003 6.38119 -10.01875 4.36183 -3.4843 4.64454 -1.8813 6.67736 4.06316 72.75064 5.81088 13.79888 5.81088 6.82539 10.88705 8.85819 0.14472 14.66043 3.19487 17.71634 5.81088 1.75009 31.93756 0.86158 74.495 -11.46984 15.97435 -7.25616 5.0873 -9.88131 -2.61601 -21.48583 -6.9686 -36.15982 "/>
<path d="M-8676995.11273 4061414.59584l-11.65515 11.01221 -37.26977 39.90234 -12.97985 10.48713 "/>
<path d="M-8677057.0175 4061475.99751l-8.24877 6.67729 -24.10067 20.90691 -11.43251 4.42908 -66.40208 5.15604 -19.5477 13.77187 -7.62539 15.01038 4.18561 29.99377 5.04277 13.15254 5.04277 5.53295 11.55496 4.18673 14.62738 -1.48084 16.47528 -6.758 10.33045 -15.3738 19.79261 -35.28442 15.61812 -21.39149 28.65364 -28.16305 6.03352 -10.36596 "/>
<path d="M-8677373.08693 4061459.42542l1.3247 14.79507 -6.24502 27.3015 -4.78674 38.32699 -11.47704 25.26855 -1.44715 8.13116 6.24502 6.24645 40.21973 0.72696 5.0873 -5.8022 -0.14472 -14.0949 -10.31932 -17.71626 -4.35259 -12.77565 1.89243 -12.92374 9.85177 -7.67348 "/>
<path d="M-8676977.80255 4061599.64797l-28.68703 3.94441 -51.25149 12.64094 -10.75346 14.36408 "/>
<path d="M-8677302.31 4060005.90092l-30.3123 3.28522 -18.59035 24.78725 "/>
<path d="M-8676642.75315 4061142.47783l7.30256 75.22924 "/>
<path d="M-8675854.75587 4058467.43625l13.414 -5.06317 7.06879 -7.25811 5.25428 -12.50981 0 -23.01323 -4.35259 -7.25813 -5.62163 -5.97887 -5.79975 -4.3495 "/>
<path d="M-8675854.75587 4058467.43625l-1.99262 25.01955 "/>
<path d="M-8675843.69071 4058381.38906l-1.10206 20.61637 -4.5307 3.81086 -5.43239 61.61996 "/>
<path d="M-8676446.02935 4060790.45005l146.04004 -9.06067 "/>
<path d="M-8676316.10837 4061357.90569l-15.62926 -126.77641 "/>
<path d="M-8677166.54475 4059154.73997l-3.89618 0.37702 "/>
<path d="M-8677168.33699 4059137.12768l-2.28205 2.15441 -0.8015 3.11043 0.97961 12.72448 3.96297 51.3421 1.12433 14.27287 "/>
<path d="M-8677086.70641 4059124.26853l12.24514 -1.14453 "/>
<path d="M-8677092.43937 4058807.43071l-12.15609 1.0907 "/>
<path d="M-8677040.51996 4058738.32577l14.64964 -1.30616 1.19112 13.38474 "/>
<path d="M-8677064.03063 4058740.54758l2.38224 24.41299 "/>
<path d="M-8677065.93419 4058740.6957l2.37111 24.45339 "/>
<path d="M-8674819.19518 4059433.12639l-71.14429 6.01873 -73.07011 8.72513 -81.95341 6.62463 "/>
<path d="M-8674594.47452 4060367.1487l-4.5641 -23.31899 13.26928 -18.72793 "/>
<path d="M-8676652.43795 4058687.02194l145.60589 -13.73492 144.4927 -13.8696 52.5428 -5.79022 25.7148 -1.34656 15.80737 0.94259 8.34896 1.88519 10.57535 3.0971 14.13758 5.38625 16.80924 3.50106 13.24702 1.75053 26.60536 1.88519 42.07877 3.3664 15.36209 1.75053 9.35084 -0.67328 10.79799 -2.96244 17.25452 -5.79022 14.24889 -5.52091 13.35834 -4.309 8.68292 -1.88519 22.2639 -2.69313 17.92244 -2.55847 24.71293 -3.63573 25.93744 -2.69313 23.37709 -1.75054 33.28453 -4.44367 92.95177 -9.022 28.94307 -3.0971 113.1006 -11.31117 31.3921 -2.55848 76.81045 -7.00216 69.79732 -6.05957 19.14695 -1.8852 47.75606 -6.19423 77.701 -8.34875 88.27636 -7.67547 57.44086 -4.98232 72.24635 -7.00219 71.80107 -6.86753 "/>
<path d="M-8676652.43795 4058687.02194l-14.58285 -144.48683 -5.78861 -61.26943 -0.07792 -0.68676 -1.14659 -10.35524 -7.90368 -74.87043 -14.58285 -145.43317 -4.5641 -47.13152 -1.89243 -10.77295 -7.90368 -27.20174 "/>
<path d="M-8675327.40205 4058729.1692l-77.58969 8.07933 -21.7073 1.07724 -45.64099 4.98225 -58.66537 6.19414 -13.24702 1.34655 -73.6935 6.59811 -146.38513 14.4081 -144.4927 14.9467 -23.71105 2.42379 -89.61219 7.54067 -33.06189 3.36637 -103.86108 11.04168 -43.63724 4.17429 -58.44273 7.00203 -83.9349 7.6753 -143.82478 14.54266 -138.70409 13.8559 -8.23764 0.82139 "/>
<path d="M-8676635.85134 4058859.24568l-15.38435 -159.78153 -1.20225 -12.44221 "/>
<path d="M-8677239.64826 4058917.95466l-8.95009 -81.29047 -9.48442 -90.62267 -14.51606 -143.44922 -10.46403 -98.83868 -4.26354 -46.0128 -5.63277 -59.3308 "/>
<path d="M-8677239.64826 4058917.95466l52.65412 -5.11683 3.206 -0.3097 24.51255 -2.38336 62.67287 -5.92475 153.73222 -15.21585 149.72472 -14.13864 10.23026 -1.0099 24.47916 -2.42377 99.61981 -9.8432 5.74409 -0.56555 5.75522 -0.56555 11.46591 -1.21189 "/>
<path d="M-8677248.59835 4058836.66419l9.618 -3.95884 44.68364 -5.14379 26.75007 -3.02972 7.62539 -2.84121 55.89352 -5.60163 "/>
<path d="M-8677292.95916 4058398.41003l-4.45278 -45.01674 "/>
<path d="M-8677183.78814 4058912.52813l-4.51957 -41.80994 "/>
<path d="M-8677221.3696 4059112.68856l-84.63621 8.94082 "/>
<path d="M-8677218.14133 4059146.52629l40.46463 -4.55119 "/>
<path d="M-8677403.16546 4058671.85967l-24.15633 2.32955 7.32482 70.58654 3.27279 29.2067 7.05766 70.84177 23.27691 -1.25228 "/>
</g>
</svg>