<?xml version="1.0" encoding="utf-8"?>
<!-- Generator: Adobe Illustrator 23.0.4, SVG Export Plug-In . SVG Version: 6.00 Build 0)  -->
<svg version="1.1" id="Layer_1" xmlns="http://www.w3.org/2000/svg" xmlns:xlink="http://www.w3.org/1999/xlink" x="0px" y="0px"
	 viewBox="0 0 1024 630.2" style="enable-background:new 0 0 1024 630.2;" xml:space="preserve">
<style type="text/css">
	.st0{fill:#05386B;}
</style>
<title></title>
<g id="icomoon-ignore">
</g>
<path class="st0" d="M950.1,630.2H73.9c-40.8,0-73.8-33-73.8-73.8l0,0V73.8C0,33,33.1,0,73.9,0h876.3c40.8,0,73.8,33,73.8,73.8
	v482.5c0,0,0,0,0,0C1024,597.1,990.9,630.1,950.1,630.2L950.1,630.2L950.1,630.2z M246.1,482.5v-192l98.5,123.1l98.4-123.1v192h98.5
	V147.8h-98.5l-98.4,123.1l-98.5-123.1h-98.5v334.8L246.1,482.5z M905.9,315.1h-98.5V147.7h-98.4v167.4h-98.5l147.7,172.3
	L905.9,315.1z"/>
</svg>
