<!-- Generated by IcoMoon.io -->
<svg version="1.1" xmlns="http://www.w3.org/2000/svg" width="1024" height="1024" viewBox="0 0 1024 1024">
<title></title>
<g id="icomoon-ignore">
</g>
<path fill="#05386B" d="M730.795 0c-41.999 0.322-82.411 6.582-120.607 17.979l3.061-0.784-2.688 0.853c-21.664-4.029-46.845-6.571-72.532-7.034l-0.428-0.006c-50.261-0.853-93.44 11.349-128.256 31.659-34.304-11.904-105.472-32.427-180.48-28.331-52.224 2.859-109.227 18.731-151.467 63.317-42.112 44.587-64.384 113.579-59.691 207.445 1.28 25.899 8.661 68.139 20.907 122.837s29.44 118.741 50.901 177.152c21.461 58.453 44.971 110.933 81.707 146.603 18.347 17.877 43.605 32.896 73.387 31.659 20.907-0.853 39.808-10.027 56.107-23.552 7.936 10.453 16.427 15.019 24.149 19.243 9.728 5.333 19.2 8.96 29.013 11.349 17.621 4.395 47.787 10.283 83.115 4.267 12.032-2.005 24.704-5.931 37.333-11.52 0.469 14.080 1.024 27.861 1.579 41.813 1.749 44.203 2.859 85.035 16.128 120.832 2.133 5.845 7.979 35.968 31.019 62.549 23.040 26.624 68.181 43.221 119.595 32.213 36.267-7.765 82.389-21.76 113.024-65.365 30.293-43.093 43.947-104.917 46.635-205.184 0.683-5.419 1.493-10.027 2.347-14.336l7.211 0.64h0.853c38.699 1.749 80.683-3.755 115.755-20.053 31.061-14.379 54.571-28.928 71.68-54.741 4.267-6.4 8.96-14.123 10.24-27.435s-6.357-34.133-19.029-43.733c-25.387-19.285-41.344-11.947-58.453-8.405-15.229 3.526-32.867 5.772-50.951 6.223l-0.334 0.007c49.323-83.072 84.693-171.307 104.875-249.387 11.947-46.080 18.645-88.576 19.2-125.739s-2.475-70.059-24.747-98.517c-69.589-88.917-167.424-113.493-243.115-114.347-2.347-0.043-4.693-0.085-7.040-0.043zM728.789 27.307c71.595-0.683 163.072 19.413 228.736 103.339 14.763 18.859 19.157 46.421 18.645 80.384-0.555 33.92-6.827 74.539-18.304 119.040-22.272 86.187-64.341 186.667-123.605 276.821 1.945 1.399 4.166 2.631 6.526 3.592l0.216 0.078c12.373 5.12 40.576 9.515 96.853-2.048 14.165-2.987 24.533-4.992 35.285 3.2 4.81 4.096 7.841 10.156 7.841 16.925 0 0.425-0.012 0.847-0.036 1.267l0.003-0.058c-0.619 5.441-2.606 10.325-5.606 14.42l0.059-0.084c-10.88 16.341-32.341 31.829-59.861 44.587-24.363 11.349-59.307 17.28-90.283 17.621-15.531 0.171-29.867-1.024-42.027-4.821l-0.768-0.299c-4.693 45.227-15.488 134.528-22.528 175.275-5.632 32.853-15.488 58.965-34.304 78.507-18.773 19.541-45.355 31.317-81.109 38.997-44.288 9.515-76.587-0.725-97.408-18.261-20.779-17.493-30.293-40.704-36.011-54.912-3.925-9.813-5.973-22.528-7.936-39.509s-3.413-37.76-4.395-61.184c-0.927-23.827-1.455-51.804-1.455-79.904 0-9.755 0.064-19.495 0.191-29.22l-0.015 1.477c-17.849 16.39-40.415 27.912-65.434 32.312l-0.784 0.114c-29.397 4.992-55.637 0.085-71.296-3.84-8.433-2.149-15.816-5.086-22.697-8.83l0.51 0.254c-7.253-3.883-14.165-8.277-18.773-16.939-1.839-3.306-2.921-7.25-2.921-11.448 0-1.702 0.178-3.363 0.516-4.964l-0.028 0.156c1.516-5.773 4.806-10.628 9.243-14.079l0.059-0.044c8.448-6.869 19.627-10.709 36.48-14.208 30.677-6.315 41.387-10.624 47.915-15.787 5.547-4.437 11.819-13.397 22.912-26.539-0.042-0.405-0.087-1.010-0.122-1.618l-0.006-0.131c-20.89-0.605-40.347-6.191-57.397-15.604l0.651 0.329c-6.4 6.741-39.083 41.301-78.933 89.259-16.768 20.053-35.285 31.573-54.827 32.384-19.541 0.853-37.205-9.003-52.224-23.552-29.995-29.141-53.931-79.275-74.795-135.936-20.821-56.661-37.76-119.765-49.792-173.525-12.075-53.76-19.2-97.109-20.224-118.016-4.48-88.832 16.299-148.693 51.925-186.453 35.669-37.76 84.565-52.053 132.224-54.784 85.547-4.907 166.784 24.917 183.211 31.317 31.659-21.504 72.448-34.901 123.392-34.048 25.632 0.37 50.302 3.741 73.907 9.775l-2.184-0.473 0.853-0.384c8.235-3.056 18.776-6.194 29.547-8.736l1.984-0.395c26.411-6.437 56.835-10.318 88.099-10.707l0.263-0.003zM735.275 55.893h-6.229c-25.953 0.373-51.003 3.338-75.174 8.647l2.47-0.455c53.163 23.552 93.312 59.819 121.6 96 18.708 23.661 34.899 50.64 47.401 79.585l0.898 2.335c4.693 11.264 7.851 20.779 9.643 28.16 0.896 3.712 1.493 6.827 1.707 10.069 0.085 1.621 0.171 3.285-0.512 6.144 0 0.128-0.213 0.427-0.256 0.555 1.28 37.376-7.979 62.72-9.088 98.389-0.853 25.856 5.76 56.235 7.381 89.387 1.536 31.147-2.219 65.365-22.443 98.944 1.707 2.048 3.243 4.096 4.864 6.144 53.504-84.267 92.075-177.493 112.64-256.981 11.008-42.795 16.853-81.579 17.365-112.299 0.427-30.72-5.291-52.992-12.587-62.293-57.259-73.216-134.741-91.861-199.68-92.373zM530.901 66.816c-50.432 0.128-86.613 15.36-114.048 38.187-28.288 23.595-47.275 55.893-59.733 88.96-14.805 39.253-19.883 77.227-21.888 102.997l0.555-0.341c15.232-8.533 35.243-17.067 56.661-22.016 21.419-4.907 44.501-6.443 65.408 1.664s38.187 27.179 44.459 56.107c30.037 138.965-9.344 190.635-23.851 229.632-4.602 11.238-9.427 25.627-13.452 40.345l-0.671 2.876c1.835-0.427 3.669-0.939 5.504-1.109 10.24-0.853 18.261 2.56 23.040 4.608 14.592 6.059 24.619 18.773 30.037 33.28 1.408 3.797 2.432 7.893 3.029 12.117 0.546 1.457 0.863 3.141 0.863 4.898 0 0.183-0.003 0.365-0.010 0.547l0.001-0.026c-0.694 21.326-1.089 46.4-1.089 71.567 0 30.92 0.596 61.7 1.779 92.33l-0.135-4.409c0.981 22.955 2.432 43.179 4.267 59.136 1.835 15.915 4.437 28.032 6.101 32.128 5.461 13.653 13.44 31.531 27.861 43.691 14.421 12.117 35.115 20.224 72.917 12.117 32.768-7.040 52.992-16.811 66.517-30.848 13.483-14.037 21.547-33.579 26.709-63.488 7.723-44.8 23.253-174.72 25.131-199.168-0.853-18.432 1.877-32.597 7.765-43.392 6.059-11.093 15.445-17.877 23.552-21.547 4.053-1.835 7.851-3.072 10.965-3.968-3.793-5.439-7.198-9.955-10.746-14.351l0.378 0.484c-11.198-13.498-20.733-28.958-27.942-45.657l-0.474-1.233c-4.36-8.926-8.012-15.675-11.871-22.288l0.906 1.68c-5.675-10.24-12.843-23.040-20.352-37.419-15.019-28.8-31.36-63.701-39.851-97.707-8.448-33.963-9.685-69.12 11.989-93.909 19.2-22.016 52.907-31.147 103.509-26.027-1.493-4.48-2.389-8.192-4.907-14.165-12.359-28.736-27.244-53.519-44.954-75.971l0.538 0.707c-42.88-54.827-112.299-109.184-219.563-110.933h-4.907zM247.509 69.035c-5.419 0-10.837 0.171-16.213 0.469-43.093 2.475-83.84 14.976-112.981 45.867-29.184 30.891-48.384 81.536-44.203 165.376 0.811 15.872 7.723 60.331 19.584 113.152 11.819 52.821 28.587 114.987 48.725 169.899 20.181 54.912 44.629 102.699 67.84 125.312 11.691 11.307 21.845 15.872 31.061 15.488 9.259-0.427 20.395-5.76 34.005-22.101 26.755-32.185 51.992-60.639 78.073-88.287l-0.846 0.905c-31.555-27.505-51.384-67.769-51.384-112.664 0-7.67 0.579-15.204 1.695-22.562l-0.103 0.826c4.395-31.531 4.992-61.013 4.48-84.309-0.512-22.699-2.133-37.803-2.133-47.232-0.004-0.121-0.006-0.263-0.006-0.405s0.002-0.285 0.006-0.426v0.021-0.213l-0.043-0.256v-0.043c0-0.065 0-0.142 0-0.218 0-51.601 9.259-101.040 26.207-146.745l-0.949 2.921c11.947-31.744 29.739-64 56.405-90.112-26.197-8.619-72.704-21.76-123.051-24.235-4.822-0.264-10.489-0.419-16.19-0.427h-0.023zM776.491 294.4c-28.971 0.384-45.227 7.851-53.76 17.621-12.075 13.867-13.227 38.187-5.717 68.139 7.467 29.995 22.912 63.531 37.419 91.392 7.253 13.952 14.293 26.496 19.968 36.693 5.717 10.24 9.899 17.493 12.459 23.68 2.347 5.717 4.949 10.752 7.595 15.445 11.221-23.68 13.227-46.933 12.075-71.168-1.493-29.995-8.448-60.672-7.424-91.733 1.152-36.309 8.32-59.947 8.96-88.021-9.476-1.296-20.433-2.040-31.563-2.048h-0.010zM425.173 299.307c-9.365 0.090-18.417 1.236-27.103 3.324l0.82-0.166c-18.652 4.603-35.038 11.175-50.199 19.674l1.004-0.517c-5.676 3.069-10.548 6.293-15.109 9.894l0.218-0.166-0.939 0.853c0.256 6.229 1.493 21.333 2.005 43.563 0.512 24.32-0.085 55.339-4.779 88.917-10.197 72.96 42.752 133.376 104.96 133.461 3.627-14.976 9.6-30.165 15.573-46.165 17.323-46.677 51.413-80.725 22.699-213.589-4.693-21.76-13.995-30.549-26.795-35.499-6.244-2.28-13.454-3.599-20.971-3.599-0.488 0-0.974 0.006-1.459 0.017l0.072-0.001zM762.965 308.011h2.133c2.816 0.085 5.419 0.384 7.68 0.939 2.304 0.512 4.267 1.28 5.888 2.347 1.652 1.035 2.827 2.7 3.193 4.65l0.007 0.043-0.043 0.341c0.006 0.126 0.009 0.273 0.009 0.421 0 1.975-0.559 3.819-1.527 5.383l0.025-0.044c-1.328 2.444-2.888 4.548-4.699 6.406l0.006-0.006c-4.22 4.635-9.893 7.882-16.295 9.020l-0.174 0.026c-0.907 0.116-1.956 0.182-3.020 0.182-5.421 0-10.442-1.714-14.551-4.629l0.078 0.053c-2.123-1.44-3.948-3.103-5.512-4.991l-0.035-0.043c-1.335-1.468-2.285-3.309-2.677-5.349l-0.011-0.070c-0.019-0.196-0.030-0.424-0.030-0.654 0-1.848 0.691-3.534 1.828-4.814l-0.006 0.007c1.383-1.566 3.039-2.854 4.899-3.797l0.093-0.043c4.096-2.304 9.643-4.011 15.915-4.949 2.347-0.341 4.651-0.512 6.827-0.555zM429.312 315.179c2.261 0 4.651 0.213 7.083 0.555 6.528 0.896 12.331 2.645 16.768 5.205 2.223 1.175 4.105 2.689 5.653 4.497l0.022 0.026c1.463 1.665 2.355 3.861 2.355 6.267 0 0.348-0.019 0.691-0.055 1.029l0.004-0.042c-0.438 2.56-1.577 4.8-3.209 6.58l0.009-0.010c-1.75 2.137-3.759 3.971-6.003 5.484l-0.098 0.063c-4.39 3.143-9.868 5.025-15.786 5.025-1.173 0-2.33-0.074-3.464-0.218l0.135 0.014c-7.152-1.205-13.331-4.706-17.898-9.704l-0.022-0.024c-1.947-2.020-3.623-4.322-4.955-6.833l-0.079-0.164c-1.137-1.796-1.812-3.982-1.812-6.326 0-0.432 0.023-0.858 0.068-1.278l-0.005 0.052c0.64-4.608 4.437-6.997 8.149-8.32 3.36-1.112 7.228-1.753 11.246-1.753 0.652 0 1.299 0.017 1.942 0.050l-0.090-0.004zM815.872 628.48l-0.128 0.043c-6.272 2.261-11.435 3.2-15.787 5.12-4.447 1.744-8.003 4.955-10.147 9.025l-0.051 0.105c-2.688 4.907-4.992 13.611-4.309 28.416 1.811 1.262 3.91 2.282 6.161 2.948l0.154 0.039c7.296 2.219 19.541 3.669 33.195 3.456 27.221-0.299 60.715-6.656 78.507-14.933 15.387-7.236 28.635-16.007 40.418-26.399l-0.184 0.159h-0.043c-59.435 12.288-93.013 9.003-113.621 0.512-5.42-2.285-10.093-5.151-14.258-8.608l0.092 0.075zM473.216 632.491h-0.896c-2.261 0.213-5.547 0.981-11.904 8.021-14.848 16.64-20.053 27.093-32.299 36.864-12.245 9.728-28.16 14.933-59.947 21.461-10.069 2.048-15.829 4.309-19.669 6.144 1.237 1.024 1.109 1.28 2.987 2.261 4.651 2.56 10.624 4.821 15.445 6.059 13.653 3.413 36.096 7.381 59.52 3.413 23.424-4.011 47.787-15.232 68.565-44.373 3.584-5.035 3.968-12.459 1.024-20.437-2.987-7.979-9.515-14.848-14.123-16.768-2.53-1.251-5.469-2.153-8.566-2.546l-0.138-0.014z"></path>
</svg>
