<!-- Generated by IcoMoon.io -->
<svg version="1.1" xmlns="http://www.w3.org/2000/svg" width="1024" height="1024" viewBox="0 0 1024 1024">
<title></title>
<g id="icomoon-ignore">
</g>
<path fill="#05386B" d="M950.144 827.093h-876.288c-40.766 0-73.813-33.047-73.813-73.813v0-482.56c0-40.766 33.047-73.813 73.813-73.813h876.288c40.766 0 73.813 33.047 73.813 73.813v482.475c0 0.013 0 0.028 0 0.043 0 40.766-33.047 73.813-73.813 73.813v0zM246.144 679.381v-192l98.475 123.093 98.432-123.093v192h98.475v-334.72h-98.475l-98.432 123.093-98.475-123.093h-98.475v334.805zM905.856 512h-98.475v-167.381h-98.432v167.381h-98.475l147.669 172.331z"></path>
</svg>
